<svg width="314" height="235" viewBox="0 0 314 235" fill="none" xmlns="http://www.w3.org/2000/svg">
<path fill-rule="evenodd" clip-rule="evenodd" d="M105.35 103.243C106.888 97.2675 108.338 91.1622 110.62 85.42C112.049 81.8265 113.563 78.2656 115.079 74.7085C115.289 74.2146 115.378 73.7387 115.787 73.4928C116.333 73.1644 117.464 73.1714 118.081 73.0586C126.838 71.454 135.687 70.2292 144.565 69.5403C154.696 68.7541 164.573 69.1137 174.598 70.763C183.172 72.1734 191.66 74.1174 200.056 76.3434C201.291 76.6703 202.523 77.0047 203.753 77.3481C204.326 77.5082 205.278 77.5899 205.777 77.9239C206.845 78.6378 207.207 81.5635 207.607 82.803C208.144 84.4643 208.456 86.7467 209.49 88.1601C211.029 90.2638 213.372 92.0888 215.28 93.8376C221.938 99.9415 229.237 105.51 237.836 108.527C251.14 113.196 265.168 116.122 278.95 119.015C279.27 119.082 279.591 119.149 279.912 119.215C276.344 123.162 272.777 127.109 269.209 131.055C267.198 133.28 265.186 135.505 263.175 137.73C262.141 138.874 262.255 139.078 260.792 138.759C253.464 137.162 246.149 135.42 238.953 133.298C235.426 132.258 231.838 131.177 228.556 129.492C224.039 127.173 219.799 124.306 215.673 121.361C211.984 118.728 208.382 115.975 204.845 113.143C204.148 112.584 201.631 109.893 200.815 110.068C200.112 110.22 198.893 111.82 198.378 112.286C197.015 113.518 195.646 114.745 194.269 115.962C192.077 117.898 189.839 120.269 187.279 121.726C184.581 123.262 181.489 124.308 178.642 125.531C177.054 126.213 175.464 126.893 173.874 127.571C173.458 127.747 172.879 128.132 172.431 128.142C171.106 128.17 169.181 127.094 167.952 126.675C164.794 125.598 161.659 124.452 158.556 123.224C151.932 120.602 144.652 117.754 139.2 113.035C138.249 112.212 137.319 111.291 136.69 110.191C136.472 109.81 136.147 109.279 136.125 108.829C136.089 108.112 136.493 107.971 137.094 107.522C140.195 105.207 143.538 103.189 146.827 101.154C147.599 100.676 148.373 100.2 149.15 99.7288L110.728 102.811C108.935 102.955 107.142 103.099 105.35 103.243Z" fill="#009034"/>
<path fill-rule="evenodd" clip-rule="evenodd" d="M162.564 30.1598C166.623 30.3448 170.785 30.5333 174.809 31.104C178.82 31.6727 182.563 33.1274 186.188 34.8888C192.725 38.0645 199.406 41.9248 203.61 48.0334C205.576 50.8896 207.18 53.8801 209.893 56.1284C210.528 56.6541 211.22 57.2861 212.062 57.4469C212.732 57.5748 213.323 57.304 213.979 57.2717C215.23 57.2096 215.705 57.8689 215.705 59.1112C216.645 58.7366 217.668 58.3976 218.692 58.5352C219.549 58.6505 220.231 59.1665 221.053 59.3835C222.538 59.7752 223.991 59.1895 225.402 58.7531C228.968 57.651 232.885 56.8165 236.631 57.2096C239.098 57.4687 242.089 58.5375 240.811 61.7127C239.751 64.3465 235.789 65.6798 233.286 66.3349C231.157 66.8924 228.295 66.3949 228.474 69.3292C228.6 71.3773 228.91 73.5745 231.089 74.239C232.284 74.6033 236.518 75.1462 234.045 76.9943C232.22 78.359 231.583 80.7611 230.194 82.5651C228.424 84.8646 226.025 86.7235 223.221 87.5628C220.082 88.502 216.762 88.3217 213.538 88.6861C215.809 91.8159 219.087 93.9687 222.071 96.3487C225.208 98.8514 228.235 101.586 231.866 103.37C235.12 104.969 238.637 106.08 241.998 107.436C245.528 108.86 249.084 110.267 252.728 111.377C260.078 113.615 267.81 115.178 275.367 116.55C279.097 117.228 282.753 117.128 286.52 117.189C290.385 117.251 294.246 117.928 298.04 118.623C299.879 118.96 301.735 119.173 303.574 119.509C304.456 119.67 307.949 120.025 308.074 121.316C308.278 123.418 306.002 124.597 304.335 125.183C303.623 125.434 302.476 125.397 301.86 125.742C301.193 126.114 301.453 126.662 301.377 127.384C301.266 128.432 300.704 129.186 299.843 129.768C299.135 130.246 298.282 130.228 298.77 131.134C298.995 131.551 299.558 131.815 299.818 132.255C300.114 132.758 300.251 133.309 300.191 133.888C300.085 134.9 299.415 135.673 298.481 136.031C296.988 136.604 295.236 136.199 293.706 136.013C291.147 135.702 288.55 135.671 286.025 135.111C283.392 134.528 280.83 133.63 278.195 133.033C276.843 132.726 275.489 132.47 274.168 132.045C273.308 131.769 272.066 131.052 271.151 131.276C270.294 131.487 269.624 132.521 269.063 133.121C268.289 133.949 267.54 134.8 266.754 135.616C266.233 136.157 265.699 136.686 265.13 137.177C264.945 137.337 263.803 138.034 263.787 138.221C263.743 138.75 264.989 138.741 265.256 138.951C266.808 140.177 264.477 140.952 263.471 140.89C261.152 140.749 258.821 140.465 256.524 140.124C251.056 139.314 245.603 138.439 240.374 136.61C235.203 134.8 230.156 132.875 225.373 130.177C220.781 127.588 216.34 124.661 212.003 121.669C209.899 120.217 207.78 118.712 206.003 116.863C204.265 115.054 202.848 112.977 201.407 110.933C197.956 114.262 194.635 117.764 190.928 120.816C187.401 123.719 183.161 125.27 179.06 127.156C179.192 128.013 183.202 128.526 183.934 128.749C187.278 129.765 190.487 131.396 193.74 132.676C199.151 134.804 204.286 137.573 206.088 143.483C207.859 149.294 205.804 155.143 203.298 160.393C200.34 166.589 196.826 172.329 192.578 177.731C190.772 180.03 188.825 182.145 186.842 184.285C185.151 186.111 183.7 188.275 184.409 190.87C185.771 190.445 186.02 191.506 185.13 192.404C184.339 193.203 182.971 193.357 181.915 193.49C178.712 193.891 175.404 193.749 172.198 193.451C166.36 192.908 160.51 191.436 155.225 188.904C152.595 187.644 151.644 189.675 149.835 191.249C148.412 192.486 146.453 193.289 145.372 194.891C144.483 196.208 145.063 198.29 146.911 197.796C148.349 197.412 149.504 195.81 151.026 195.748C153.729 195.639 148.63 199.491 147.977 199.961C149.269 201.115 150.733 199.532 152.036 199.268C153.285 199.015 153.634 199.661 152.968 200.701C152.449 201.512 150.819 202.086 151.903 203.073C152.802 203.89 154.794 204.32 155.897 204.678C159.338 205.796 162.762 206.591 166.345 207.101C167.502 207.266 169.357 207.161 170.295 207.98C171.532 209.061 170.935 210.851 170.309 212.089C167.937 216.779 163.005 219.084 157.939 219.421C154.82 219.629 151.671 219.428 148.542 219.596C145.112 219.78 141.675 220.054 138.238 219.941C132.712 219.759 129.197 215.77 126.442 211.383C124.692 208.596 123.079 205.727 121.564 202.807C120.972 201.666 119.733 200.484 119.522 199.202C119.332 198.048 120.069 197.122 120.785 196.305C122.67 194.156 124.938 192.516 127.154 190.74C128.419 189.727 128.905 188.887 129.469 187.412C129.943 186.17 130.855 185.639 131.658 184.648C132.54 183.557 132.263 183.364 131.575 182.473C130.854 181.54 131.137 180.166 131.44 179.11C131.874 177.595 132.805 177.262 134.195 176.774C135.463 176.329 136.538 175.549 137.663 174.824C143.216 171.247 148.449 167.2 154.071 163.722C159.618 160.291 165.415 157.261 170.709 153.433C166.41 152.855 162.62 150.537 158.565 149.164C156.484 148.459 154.423 147.707 152.409 146.825C151.64 146.488 150.744 146.189 150.058 145.694C149.369 145.196 148.839 144.542 148.117 144.071C146.402 142.954 144.364 142.317 142.521 141.447C140.529 140.506 138.564 139.478 136.714 138.281C134.987 137.163 133.328 135.886 131.892 134.41C130.748 133.234 129.635 131.701 128.016 131.161C128.185 133.414 130.98 135.28 132.512 136.636C134.997 138.837 137.58 140.706 140.358 142.524C137.243 145.19 133.445 146.926 129.796 148.728C125.693 150.752 121.705 152.997 117.619 155.053C114.158 156.795 110.516 158.138 106.998 159.756C103.202 161.503 99.295 162.967 95.3345 164.295C91.7503 165.498 88.376 166.78 84.9941 168.467C81.7063 170.108 78.1886 171.363 74.6715 172.416C70.7199 173.599 66.9499 174.724 63.1493 176.346C59.7223 177.809 56.2811 178.743 52.6542 179.539C51.4562 179.801 49.9179 180.283 49.0788 179.124C48.4429 178.246 48.3472 176.893 48.1647 175.86C47.4654 171.908 47.4101 167.894 46.7812 163.936C44.3938 164.656 42.1327 165.541 39.614 165.655C38.0306 165.727 37.0684 165.89 36.6739 167.617C37.5898 167.72 40.8626 167.765 40.9509 169.061C41.031 170.23 39.0507 170.242 38.3486 170.274C37.092 170.331 35.9532 170.125 35.2825 171.354C36.2706 171.719 38.4613 171.054 38.8988 172.381C39.4626 174.094 36.9024 174.089 35.9812 174.227C34.3739 174.468 34.5391 175.729 34.6492 177.076C34.7941 178.849 34.9039 180.625 35.1435 182.389C35.6558 186.158 36.5332 189.871 36.9486 193.654C37.3078 196.925 37.5092 200.067 35.1683 202.674C34.227 203.722 32.9186 204.929 31.4395 205.053C29.9383 205.18 29.9656 204.13 29.0312 203.357C28.4585 202.883 27.7001 202.787 27.0256 202.531C26.2051 202.22 25.409 201.766 24.6718 201.294C23.313 200.426 22.1254 199.347 21.1647 198.051C17.4076 192.981 16.0645 185.405 15.6924 179.257C15.4557 175.348 15.6918 171.433 16.051 167.539C16.2444 165.442 16.439 163.343 16.6931 161.252C16.7717 160.605 16.9033 159.956 16.9522 159.306C16.9801 158.934 16.8005 158.182 16.9907 157.825C16.7478 158.28 16.3177 157.944 15.8905 157.586C15.0087 156.846 15.2802 155.425 15.7518 154.453C17.173 151.521 21.432 151.407 24.2028 151.179C31.6506 150.567 38.7263 148.572 45.8565 146.441C44.8501 144.936 46.4329 143.943 47.6598 143.425C49.5517 142.628 51.5054 141.927 53.415 141.165C57.7273 139.445 61.9498 137.841 66.4656 136.743C70.5559 135.75 74.5137 134.099 78.5493 132.89C82.7188 131.64 86.813 130.211 90.9142 128.755C99.0368 125.872 107.167 122.926 115.05 119.428C117.042 118.544 118.946 117.519 120.868 116.496C122.431 115.665 124.264 115.056 125.588 113.856C126.853 112.71 127.61 111.117 128.985 110.076C130.222 109.139 131.916 109.126 132.941 107.962C134.328 106.388 135.984 105.696 137.866 104.773C138.471 104.477 142.452 102.979 142.371 102.129C139.526 102.129 136.605 102.974 133.792 103.368C130.816 103.784 127.842 104.248 124.844 104.478C119.987 104.851 115.132 104.75 110.295 104.224C109.572 104.146 106.672 103.551 106.172 104.325C105.791 104.915 106.738 105.618 106.748 106.252C106.762 107.182 106.011 107.681 105.161 107.358C103.506 106.729 103.748 104.065 103.903 102.713C104.199 100.127 104.857 97.5646 105.432 95.0308C102.017 96.7669 98.7748 98.9958 95.8342 101.446C93.5563 103.343 91.4995 105.915 88.8265 107.268C86.26 108.567 84.7341 107.459 84.8392 104.599C84.8875 103.289 85.1533 102.045 85.6076 100.825C85.8223 100.248 86.704 98.6162 86.291 98.0019C83.9454 99.87 81.6153 101.743 79.1531 103.458C77.4126 104.67 74.8891 106.561 72.6165 106.08C70.6095 105.655 70.8059 103.449 71.4421 101.963C71.9938 100.674 72.9854 99.5286 73.9682 98.5441C74.7808 97.7305 75.9361 97.0012 76.3429 95.8733C73.6473 97.0833 70.8718 97.999 68.0478 98.8493C66.0396 99.4539 64.6358 101.965 62.3005 101.594C59.9628 101.223 60.8938 98.3371 61.8268 97.0824C62.4798 96.2046 63.383 95.4316 64.2592 94.7829C65.1136 94.1501 66.4135 93.5988 66.8339 92.5458C64.1029 93.0577 61.3572 93.9478 58.547 93.7837C56.8782 93.6861 54.0925 92.9583 54.4219 90.7177C54.7555 88.4488 57.7803 88.275 59.4812 87.8518C61.8003 87.2746 64.0196 86.191 66.2574 85.3647C70.7717 83.6974 75.374 82.3601 79.9929 81.0312L81.4519 80.6114C86.6655 79.1106 91.9084 77.8323 97.1867 76.5855C99.7955 75.9692 102.395 75.297 105.025 74.7712C107.568 74.2625 110.153 73.9679 112.677 73.3598C110.55 70.1523 113.126 67.5164 115.908 65.99C114.144 65.6336 112.349 65.4192 110.6 64.9873C109.106 64.6185 107.667 64.0519 106.162 63.7255C103.576 63.1647 100.993 62.8698 98.7854 61.2702C94.6132 58.2473 94.2585 53.4369 97.7738 49.7969C101.321 46.123 106.529 44.4028 111.54 44.2319C117.149 44.0408 123.53 45.1267 128.779 47.1104C131.357 48.0849 134.042 49.3237 136.252 50.9834C137.755 52.1122 140.133 54.2753 142.151 54.2753C139.734 51.3559 136.768 48.3369 136.331 44.3831C135.918 40.6398 137.618 36.661 140.471 34.2398C146.17 29.4032 155.576 29.8411 162.564 30.1598ZM130.069 190.598C128.581 192.909 126.524 194.785 124.581 196.703C123.911 197.365 122.566 198.206 122.502 199.243C122.449 200.089 123.488 201.04 123.942 201.705C126.342 205.221 128.318 209.105 131.249 212.228C134.563 215.757 138.344 216.443 143.036 216.453C148.245 216.464 153.524 217.115 158.724 216.841C163.129 216.608 167.472 214.649 169.662 210.666C168.235 209.932 166.204 210.282 164.658 210.298C162.549 210.32 160.49 210.282 158.407 209.916C156.519 209.584 154.652 209.086 152.876 208.359C151.957 207.982 151.048 207.552 150.202 207.029C149.582 206.646 149.117 206.06 148.508 205.685C146.263 204.3 143.67 208.703 141.271 208.618C139.801 208.566 140.333 207.122 140.945 206.315C142.048 204.856 143.974 203.956 145.428 202.892C144.075 201.648 142.545 202.953 141.256 203.603C139.645 204.416 137.971 205.415 136.17 205.72C136.305 203.402 139.461 202.16 141.203 201.217C141.978 200.798 142.949 200.409 143.139 199.486C143.283 198.792 143.037 197.805 142.965 197.104C142.872 196.213 142.804 195.929 141.854 195.678C140.703 195.373 139.543 195.461 138.389 195.081C135.232 194.039 132.775 192.493 130.069 190.598ZM27.4505 154.073C26.6795 154.287 25.9004 154.472 25.1173 154.637C23.5672 154.963 22.015 155.303 20.4596 155.599C19.6794 155.748 18.8131 155.653 18.5832 156.397C18.465 156.778 18.7624 157.464 18.8134 157.86C18.9051 158.574 18.911 159.298 18.9195 160.017C19.0009 166.644 17.6138 173.233 18.2245 179.859C18.7403 185.459 19.9476 192.541 24.0662 196.712C25.8438 198.512 28.0309 200.467 30.2692 201.697C32.0239 202.662 34.4751 200.242 34.8335 198.566C35.0902 197.366 34.6619 196.099 34.3831 194.942C34.0256 193.459 33.6633 191.977 33.3093 190.493C32.5533 187.326 31.8659 184.129 31.6487 180.874C31.5774 179.804 31.5927 178.774 31.6531 177.709C31.6858 177.131 31.9585 175.737 31.5535 175.242C31.0297 174.601 29.833 175.02 29.1244 175.074C28.3475 175.135 27.5891 175.088 26.8301 174.89C25.0232 174.418 24.7067 172.984 26.6795 172.32C28.0568 171.856 30.5746 172.528 31.7318 171.635C33.0915 170.586 30.3435 170.442 29.7019 170.415C28.8474 170.379 26.0133 170.602 26.158 169.011C26.265 167.832 28.7047 167.754 29.5583 167.703C31.3819 167.596 33.6893 168.279 34.4774 166.082C34.7934 165.203 32.8914 164.756 32.4142 164.32C31.2543 163.259 30.8741 161.441 30.7745 159.952C30.6763 158.487 32.1197 153.41 29.9206 153.275C29.2453 153.234 28.1229 153.887 27.4505 154.073ZM135.612 183.376C134.318 184.915 133.199 186.601 131.993 188.21C134.821 189.768 137.713 191.021 140.636 192.361C141.965 192.971 142.897 193.454 144.184 192.53C145.107 191.867 145.799 190.925 146.7 190.236C147.995 189.246 149.347 188.338 150.675 187.394C146.759 185.967 142.783 184.715 138.868 183.285C137.404 182.75 136.669 182.118 135.612 183.376ZM103.367 178.486C104.204 179.334 102.592 181.684 102.275 182.488C104.871 182.283 107.446 181.874 109.996 181.347C110.864 181.168 110.544 182.224 110.219 182.572C109.818 183.003 109.014 183.134 108.477 183.287C106.501 183.853 104.473 184.126 102.445 184.428C103.373 185.568 105.607 187.353 104.887 189.068C103.59 187.952 102.658 186.466 101.223 185.501C100.809 186.118 99.9486 188.297 99.0061 188.164C97.5264 187.954 99.0255 185.408 99.3348 184.795C98.3385 184.795 94.5945 185.668 94.0722 184.443C93.5377 183.19 97.1507 183.231 97.8186 182.935L97.6941 182.783L97.569 182.632C97.0696 182.031 96.59 181.438 96.5223 180.612C97.6396 180.997 98.3855 182.745 99.6133 182.771C100.778 182.795 101.297 181.047 101.712 180.22C101.948 179.75 102.749 177.86 103.367 178.486ZM229.349 162.006C231.853 164.115 230.152 168.368 228.258 170.281C226.136 172.423 221.411 174.391 218.721 172.207C217.248 171.012 217.78 169.188 218.142 167.598C218.545 165.831 218.796 164.342 220.261 163.13C222.54 161.243 226.81 159.866 229.349 162.006ZM224.268 163.231C221.826 163.75 219.351 166.187 218.77 168.699C218.009 171.993 221.432 172.233 223.688 171.738C226.525 171.116 229.539 169.038 229.684 165.778C229.809 162.966 226.166 162.828 224.268 163.231ZM46.5499 148.99C42.8926 150.35 39.4549 152.21 35.6178 153.017C34.4468 153.263 33.9659 153.533 33.6764 154.622C33.2708 156.147 32.8864 157.693 33.1759 159.286C33.7771 162.594 38.3861 162.188 40.9456 162.059C42.2596 161.992 44.7868 162.232 45.9268 161.413C46.7596 160.815 46.4101 159.693 46.2804 158.82C45.7951 155.556 46.3245 152.252 46.5499 148.99ZM245.948 117.467C244.601 117.72 242.273 118.817 244.204 120.191C245.492 121.107 247.409 121.219 248.922 121.445C251.877 121.887 255.032 122.269 257.597 123.935C262.35 127.02 261.767 132.843 260.346 137.608C261.37 138.211 264.377 134.273 264.944 133.633C267.242 131.035 269.549 128.445 271.866 125.864C272.857 124.761 264.729 120.948 263.998 120.604C260.137 118.79 256.532 117.595 252.201 117.284C250.147 117.136 247.98 117.084 245.948 117.467ZM229.183 107.809C228.813 108.738 229.46 109.159 230.054 109.801C233.374 113.388 235.712 118.466 237.561 122.92C238.483 125.141 239.129 127.381 239.7 129.708C240.26 131.991 242.039 132.601 244.171 133.249C249.081 134.742 254.25 135.242 259.177 136.716C260.497 137.111 260.756 134.212 260.839 133.477C261.075 131.385 260.856 129.202 259.755 127.358C257.675 123.872 253.504 123.132 249.784 122.538C247.656 122.198 244.853 121.848 243.169 120.395C242.324 119.666 242.205 118.829 242.864 117.923C244.065 116.271 246.181 116.059 248.072 115.924C248.993 115.858 254.694 116.434 254.88 115.76C252.041 114.836 249.128 114.227 246.331 113.17C244.149 112.346 241.95 111.567 239.748 110.796L237.546 110.025C235.307 109.241 233.257 108.287 231.108 107.342C230.301 106.988 229.561 106.857 229.183 107.809ZM277.333 122.925C276.622 123.88 275.917 124.682 275.384 125.755C274.762 127.006 273.731 127.805 272.868 128.879C277.347 129.669 281.619 130.671 285.934 132.117C288.15 132.86 290.438 133.227 292.704 133.758C294.605 134.204 296.631 134.896 298.6 134.487C296.358 131.401 290.378 132.254 288.804 128.517C287.733 125.974 290.365 123.946 292.518 123.505C296.278 122.734 300.286 122.675 304.106 122.4C304.146 120.941 290.282 120.185 288.912 120.067C286.478 119.857 283.938 119.401 281.508 119.317C279.254 119.239 278.517 121.336 277.333 122.925ZM224.432 112.251C223.097 113.54 221.79 114.858 220.455 116.149C219.578 116.997 218.39 117.901 217.699 118.913C216.816 120.204 218.362 120.824 219.393 121.435C221.993 122.978 224.68 124.418 227.326 125.885C229.704 127.203 232.176 128.881 234.8 129.652C236.203 130.065 237.521 130.705 238.874 131.246C238.221 125.393 234.857 120.077 231.754 115.197C231.041 114.076 230.305 112.971 229.593 111.851C229.234 111.287 228.568 109.956 227.815 109.841C226.703 109.671 225.106 111.6 224.432 112.251ZM292.468 127.149C294.095 128.079 295.725 128.552 297.56 127.849C298.011 127.665 298.458 127.471 298.899 127.266C297.677 125.601 294.061 126.616 292.468 127.149ZM157.751 106.779C154.867 108.077 151.783 109.37 149.276 111.329C148.35 112.052 146.282 113.572 146.766 114.949C147.18 116.129 149.47 117.134 150.557 117.493C156.276 119.384 162.786 118.009 168.053 121.479C169.478 122.418 169.943 123.646 171.001 124.881C171.959 125.998 173.171 125.859 174.458 125.396C176.147 124.787 177.704 123.855 179.401 123.257C180.268 122.952 181.742 122.75 181.832 121.58C182.256 116.07 181.079 109.049 176.216 105.677C170.756 101.892 163.225 104.314 157.751 106.779ZM154.659 119.621C154.519 120.319 159.931 121.585 160.518 121.746C163.786 122.645 166.839 124.783 170.224 125.128C170.812 123.817 166.124 121.729 165.382 121.46C161.999 120.232 158.212 120.01 154.659 119.621ZM260.924 117.173C265.027 118.853 269.004 120.909 272.442 123.768C273.629 124.754 276.51 120.075 277.156 119.357C271.691 119.13 266.306 118.089 260.924 117.173ZM184.245 84.2567C180.442 86.7664 177.129 90.048 172.954 91.9719C174.26 92.1773 175.687 91.3325 176.934 91.0361C178.15 90.7476 179.379 90.5571 180.562 90.1486C181.288 89.8977 184.289 88.2775 184.852 89.3756C185.732 91.0909 179.535 92.2777 178.654 92.5703C175.678 93.5581 172.722 94.5929 169.776 95.6678C166.923 96.7091 164.073 97.8295 161.125 98.5773C158.13 99.3368 154.956 99.5325 152.077 100.712C149.532 101.755 147.344 103.481 144.889 104.699C142.427 105.921 139.628 106.677 137.506 108.495C139.814 110.955 142.543 113.015 145.529 114.583C146.007 110.832 150.41 108.695 153.421 107.253C159.987 104.109 169.848 99.3687 176.541 104.696C181.432 108.59 182.095 115.978 182.095 121.762C183.419 121.341 184.629 120.671 185.86 120.038C186.712 119.599 186.722 118.379 186.829 117.563C187.005 116.228 187.366 114.935 187.781 113.654C188.699 110.821 189.849 108.056 190.945 105.288C192.717 100.811 194.903 96.3945 195.992 91.6837C196.703 88.6094 197.549 83.3252 193.838 81.7992C190.628 80.4792 186.852 82.5367 184.245 84.2567ZM167.636 71.7434C167.016 72.1585 167.247 73.4039 167.289 74.0288C167.443 76.301 167.347 78.5825 167.423 80.8588C167.515 83.6323 167.536 88.7183 170.399 90.2735C172.357 91.3371 174.793 89.7433 176.356 88.658C179 86.8224 181.426 84.6906 184.107 82.8986C187.285 80.7741 193.308 77.8353 196.349 81.8318C197.995 83.9948 197.764 87.2178 197.353 89.7345C196.811 93.0549 195.545 96.2042 194.287 99.3072C191.689 105.715 188.977 112.226 187.533 119.009C190.827 117.053 193.389 114.235 196.264 111.759C198.395 109.923 201.56 107.816 202.052 104.825C202.163 104.149 202.817 103.668 203.268 103.216C203.854 102.628 204.267 102.032 204.638 101.282C205.457 99.6246 205.99 97.8347 206.326 96.0212C207.03 92.2165 206.694 88.4294 206.045 84.6471C205.751 82.9365 206.182 81.1013 205.783 79.434C205.506 78.2763 204.688 78.3448 203.6 78.0815C199.681 77.1333 195.755 76.2139 191.835 75.2745C190.242 74.8926 188.51 74.1765 186.857 74.2003C185.5 74.22 184.36 75.0282 183.188 75.6137C181.265 76.5749 178.208 78.2566 176 77.3007C173.426 76.1868 176.425 73.6719 175.135 72.4821C174.25 71.6663 171.606 72.1556 170.406 71.9529C169.749 71.8419 168.239 71.3397 167.636 71.7434ZM208.129 104.6C206.257 104.895 205.174 105.706 204.143 107.297C203.096 108.913 202.971 109.714 204.464 110.98C206.075 112.344 207.76 113.692 209.47 114.921C211.638 116.478 214.042 117.658 216.184 119.253C217.122 119.952 221.38 114.473 222.119 113.722C223.138 112.686 224.184 111.646 225.278 110.692C225.677 110.344 226.93 109.535 226.931 108.943C226.932 107.444 223.605 106.103 222.534 105.69C220.136 104.766 217.621 104.393 215.065 104.355C212.8 104.32 210.373 104.246 208.129 104.6ZM216.468 98.0074C214.711 98.9392 212.876 99.7245 211.108 100.637C210.481 100.961 206.526 102.62 206.726 103.612C211.176 103.33 215.607 102.578 220.044 103.439C222.036 103.825 223.935 104.473 225.6 105.669C226.861 106.574 227.822 108.313 229.074 106.765C226.518 105.318 224.216 103.401 221.949 101.539C220.958 100.723 219.937 99.9567 218.93 99.1637C218.331 98.6922 217.343 97.5439 216.468 98.0074ZM111.193 76.3431C109.8 76.5384 108.443 76.9068 107.076 77.2231C101.537 78.5047 95.9762 79.6554 90.4515 81.0117C79.4317 83.7166 68.0824 86.3248 57.5748 90.6584C58.4583 91.6339 60.7994 90.9272 61.8958 90.736C64.0421 90.3614 66.1249 89.7068 68.2454 89.2128C70.3194 88.7298 72.401 88.1538 74.4921 87.7511C75.4552 87.5657 77.1541 87.3214 77.193 88.7638C77.248 90.8086 73.2709 92.3377 71.8112 93.0851C70.2503 93.8843 68.739 94.7676 67.2531 95.6968C66.0785 96.4316 63.9121 97.411 63.5311 98.8712C67.3431 97.2581 71.1575 95.6514 74.946 93.9839C76.3731 93.3557 77.819 92.7638 79.1775 91.9973C80.0833 91.4863 81.2491 90.5895 82.3217 90.509C83.7741 90.3998 84.0147 91.7171 83.4028 92.7799C82.6371 94.1104 81.0567 94.861 79.8944 95.792C78.4126 96.9793 77.1012 98.3798 75.7671 99.7237C74.6595 100.839 73.2333 101.938 72.6552 103.446C74.6462 104.111 76.9085 101.979 78.3715 100.925C80.6705 99.2689 82.8118 97.4675 85.0053 95.6778C86.1273 94.7623 87.4649 93.2795 88.9417 93.0063C90.8133 92.6595 90.6583 94.7969 90.2043 95.9751C89.19 98.6085 86.8151 100.804 86.6453 103.773C86.5409 105.601 88.0906 104.905 89.1247 104.172C90.866 102.937 92.0444 101.056 93.6248 99.6397C97.4303 96.2293 101.787 93.3199 106.494 91.2997C107.337 90.938 107.64 89.6401 107.896 88.8599C108.278 87.6954 108.718 86.5664 109.177 85.4284C110.184 82.9355 111.009 80.2411 112.42 77.9383C112.813 77.2961 113.828 76.6415 112.989 76.2637C112.532 76.0587 111.664 76.2769 111.193 76.3431ZM151.379 72.126C149.953 72.2923 148.51 72.2771 147.081 72.4276C144.749 72.6731 145.766 75.5063 145.391 77.2134C144.285 82.2389 138.952 83.1878 134.911 80.817C132.638 79.4828 131.273 77.5709 130.051 75.3342C129.354 74.0591 128.834 73.8539 127.393 74.173C126.403 74.3922 125.503 74.3458 124.496 74.4185C123.229 74.5103 123.119 74.7786 123.093 75.9827C123.07 77.0521 122.916 77.793 122.203 78.6592C120.845 80.3094 118.567 81.3957 116.627 82.2248C114.683 83.0557 112.481 83.6733 111.413 85.637C110.875 86.6272 110.298 87.8091 110.142 88.9346C109.972 90.1641 110.389 90.9269 109.672 92.0612C108.179 94.4192 107.496 96.996 106.741 99.6758C106.495 100.549 106.398 100.908 107.352 101.148C108.721 101.492 110.665 100.97 112.07 100.915C113.072 100.876 113.657 99.1105 113.983 98.3954C114.616 97.0048 115.392 95.6882 116.17 94.3721C117.932 91.3907 119.817 88.4293 122.119 85.8243C123.856 83.8583 126.421 81.4109 128.646 84.1736C130.814 86.866 132.377 90.0195 134.984 92.3663C137.278 94.4306 139.641 94.4636 142.019 92.5072C144.361 90.5812 146.141 87.9535 147.596 85.3316C149.17 82.4964 150.357 79.4694 151.891 76.6172C152.372 75.7232 154.593 73.3047 153.916 72.2689C153.459 71.5693 152.02 72.0515 151.379 72.126ZM163.321 71.5077C162.066 71.5669 160.803 71.426 159.547 71.401C157.276 71.3562 155.376 71.4354 154.235 73.61C153.228 75.5289 152.37 77.5705 151.451 79.5355C149.455 83.8044 147.496 88.1722 144.431 91.8048C141.715 95.0229 138.207 96.6443 134.675 93.5699C133.108 92.2068 131.918 90.4482 130.795 88.7196C129.893 87.3338 128.865 84.8949 127.356 84.087C125.672 83.1863 123.745 85.2524 122.717 86.3735C120.987 88.2583 119.541 90.475 118.152 92.6153C117.145 94.1676 116.181 95.7527 115.202 97.3233C114.805 97.9602 113.189 100.043 113.727 100.837C114.266 101.632 116.899 101.088 117.661 101.016C119.48 100.842 121.296 100.78 123.116 100.623C128.777 100.137 134.353 98.8948 140.028 98.5632C143.766 98.3446 147.45 97.6228 151.129 96.967C154.707 96.3295 158.308 95.8945 161.848 95.0518C163.929 94.5564 166.014 94.0604 168.091 93.5464C168.81 93.3686 172.207 92.8838 172.418 91.9507C170.079 91.5428 168.851 90.6365 168.021 88.3568C166.983 85.5017 166.862 82.3198 166.773 79.3115C166.739 78.1543 166.734 76.9964 166.733 75.8387L166.733 74.4496C166.733 73.6194 167.092 72.1127 166.342 71.5368C165.649 71.004 164.124 71.4693 163.321 71.5077ZM209.759 89.945C209.857 93.7071 209.184 97.4988 207.637 100.936C209.255 101.195 211.18 99.1668 212.538 98.4875C213.061 98.2256 216.523 96.9688 215.363 96.008C213.231 94.2409 211.832 91.7719 209.759 89.945ZM256.166 93.0044C256.64 93.9398 256.054 95.1272 255.737 96.0146C258.206 96.6072 260.665 97.1895 263.153 97.6927C265.029 98.0718 264.374 99.1952 262.747 99.1178C260.483 99.0101 258.377 98.0522 256.125 97.9278C253.979 97.8092 253.726 99.6805 251.897 100.041C251.959 99.0113 252.793 98.2963 253.392 97.524C252.405 97.018 251.396 96.5477 250.438 95.9901C249.942 95.7014 248.572 94.4905 249.1 93.8471C249.632 93.1978 251.029 94.4148 251.526 94.6827C252.232 95.0638 253.643 95.9037 254.474 95.6628C255.613 95.3327 255.376 93.7001 256.166 93.0044ZM220.585 68.4919C219.583 68.5614 218.493 68.2247 217.545 68.6651C216.599 69.1043 215.469 70.0658 214.678 70.7326C213.912 71.3782 213.531 72.162 212.579 72.543C211.628 72.924 210.653 72.8903 210.286 74.0522C211.149 74.2887 212.844 73.9751 213.52 74.6088C214.503 75.5309 212.787 76.5456 212.075 76.8359C211.055 77.252 210.22 77.117 209.176 77.0389C208.722 77.0052 208.727 76.8657 208.355 77.0904C206.975 77.9233 207.93 80.8864 208.377 81.9673C210.567 87.258 218.047 85.4763 222.362 84.9345C220.989 83.553 218.74 82.0291 218.627 79.8593C218.593 79.2132 218.753 78.0584 219.584 78.0046C220.248 77.9617 221.045 78.9637 221.458 79.3586C222.684 80.529 224.27 82.47 226.043 82.6379C228.412 82.8626 230.235 79.0287 231.218 77.3567C230.01 77.13 228.687 77.1433 227.985 75.9595C227.15 74.5526 227.136 72.397 227.15 70.813C227.163 69.4643 227.593 67.9889 225.788 67.9226C224.126 67.8618 222.264 68.3758 220.585 68.4919ZM61.4665 71.9512C61.1212 72.7034 59.621 72.9983 58.9623 73.1995C56.4569 73.964 54.0104 74.9349 51.5678 75.8871C46.6365 77.81 41.7591 79.9338 37.2562 82.7595C36.4147 83.288 36.8269 82.2688 37.0455 81.9013C37.5355 81.0774 38.5651 80.4944 39.3341 79.9897C41.415 78.6236 43.6191 77.6639 45.92 76.7501C50.5241 74.9218 55.1984 72.9832 59.9203 71.5022C60.468 71.3305 61.9304 70.9403 61.4665 71.9512ZM118.658 75.6766C117.743 75.7711 116.671 75.5632 115.79 75.8616C114.643 76.2505 114.832 77.0371 114.493 78.0045C113.917 79.6466 113.301 81.275 112.7 82.9085C114.924 82.8048 117.054 81.046 118.939 80.0335C120.007 79.4604 123.717 77.5582 122.598 75.8167C121.89 74.7146 119.675 75.5712 118.658 75.6766ZM143.973 72.8137C142.596 72.7889 141.081 73.2054 139.687 73.2745C137.818 73.3673 135.978 73.7225 134.111 73.8083C132.883 73.8649 131.677 74.1171 130.462 74.2823C131.671 77.0797 134.03 79.5266 136.995 80.5399C139.334 81.3393 142.607 81.4751 144.205 79.2631C145.125 77.9906 146.626 72.8616 143.973 72.8137ZM215.694 61.2584C214.192 62.255 212.988 63.6832 211.734 64.9574C208.591 68.1486 205.339 71.5653 203.979 75.9397C203.792 76.539 205.209 77.0685 205.592 77.0918C206.403 77.1406 206.568 76.7324 206.886 76.0483C207.673 74.3547 207.975 72.4627 209.235 71.0187C210.77 69.2579 212.618 67.5414 214.4 66.0288C215.611 65.0009 218.578 63.5537 218.926 61.8544C219.338 59.8456 216.604 60.655 215.694 61.2584ZM176.952 72.8827C176.103 73.1295 176.035 73.9146 175.841 74.7604C175.061 78.1588 182.956 74.451 184.056 73.8954C183.69 72.8044 180.092 73.0033 179.258 72.9605C178.609 72.9275 177.58 72.7004 176.952 72.8827ZM223.593 74.6479C222.423 74.693 222.963 69.919 224.293 70.3991C225.433 70.8113 224.343 74.6187 223.593 74.6479ZM59.1061 69.1588C57.3145 70.7035 54.5017 70.9107 52.2742 71.4066C48.9918 72.1372 45.7381 73.0684 42.4823 73.9087C40.4264 74.4394 41.5838 73.174 42.6132 72.6987C44.3831 71.8811 46.3869 71.4454 48.2786 70.9956C50.3266 70.5087 52.4195 70.1835 54.4558 69.6523C55.8658 69.2843 57.6843 68.343 59.1061 69.1588ZM114.843 35.958C116.834 36.3232 118.822 36.9593 120.567 38.0012C122.012 38.8638 121.955 40.2058 120.123 39.4271C111.578 35.7941 100.976 37.9948 92.6322 41.2118C91.7116 41.5665 91.7801 40.7925 92.0584 40.1958C92.4414 39.3739 93.2602 38.8968 94.0462 38.5152C96.4076 37.3681 99.1298 36.7194 101.698 36.2429C105.977 35.4487 110.544 35.1697 114.843 35.958ZM116.092 30.7397C117.177 31.0339 118.425 31.7635 119.089 32.6891C119.866 33.7723 119.248 34.3259 118.17 33.6889C116.966 32.978 115.865 32.2691 114.484 31.8936C113.755 31.6956 113.784 31.2387 114.308 30.8377C114.798 30.4622 115.56 30.5955 116.092 30.7397Z" fill="#404BA3"/>
</svg>
