<svg width="304" height="261" viewBox="0 0 304 261" fill="none" xmlns="http://www.w3.org/2000/svg">
<path fill-rule="evenodd" clip-rule="evenodd" d="M135.013 32.0869C133.964 34.8605 132.916 37.6345 131.867 40.4081C131.195 42.1855 130.523 43.9626 129.851 45.74C129.613 46.3702 129.48 47.0166 129.019 47.4541C127.933 48.4842 125.983 49.1398 124.678 49.8644C123.803 50.35 122.928 50.8356 122.053 51.3211C121.602 51.5717 120.602 51.8863 120.286 52.3021C119.939 52.7603 120.103 53.6017 120.103 54.2353V59.7054V70.0122C124.621 69.4478 129.139 68.8836 133.658 68.3191C127.638 75.2598 121.619 82.2002 115.599 89.1408C114.115 90.8512 112.314 92.4976 111.209 94.4876C108.857 98.7237 106.557 102.99 104.232 107.241C102.067 111.198 99.9023 115.155 97.7376 119.112L117.212 118.284C122.254 118.069 127.434 118.392 132.292 116.964C136.296 115.787 140.301 114.61 144.305 113.433C144.838 113.276 146.497 113.099 146.875 112.671C147.228 112.27 147.221 110.754 147.321 110.24C149.211 100.532 151.617 89.8336 157.134 81.4769C161.089 75.4864 166.426 70.2415 171.314 65.0176C173.222 62.9788 175.163 60.9643 177.003 58.8635C177.474 58.3255 178.155 57.715 178.467 57.0614C178.668 56.6392 178.95 55.8346 178.825 55.4597C178.77 55.2972 177.513 54.7141 177.332 54.5983C176.058 53.7799 174.795 52.9441 173.529 52.1125C169.971 49.7754 166.417 47.4324 162.839 45.1265C160.05 43.3284 157.269 41.422 154.327 39.8768C151.277 38.2752 147.919 37.1479 144.722 35.8825C141.491 34.6035 138.254 33.3391 135.013 32.0869Z" fill="#FF914D"/>
<path fill-rule="evenodd" clip-rule="evenodd" d="M244.668 180.261C243.116 181.722 240.291 183.682 238.058 182.791C236.936 182.343 235.978 181.36 234.957 180.726C233.757 179.981 232.628 179.236 231.61 178.243C229.58 176.262 228.043 173.367 225.645 171.816C224.84 171.294 223.267 171.182 222.707 170.35C222.457 169.976 222.434 169.41 222.48 168.978C222.58 168.048 223.083 168.103 222.243 167.42H223.547C223.572 166.917 223.069 166.875 222.695 166.94C222.869 166.142 223.046 163.019 221.59 164.434C220.329 165.661 220.96 167.697 220.066 169.025C219.382 170.043 217.566 169.219 217.321 168.1C217.211 167.597 217.766 166.811 217.832 166.318C217.977 165.225 217.488 164.28 216.779 163.452C215.222 164.488 216.104 166.633 215.217 167.995C214.414 169.228 212.626 168.653 211.404 168.436C209.939 168.176 208.282 168.439 206.88 168.093C204.763 167.571 205.554 165.088 205.345 163.485C205.12 161.767 203.383 159.384 203.905 157.652C204.465 155.792 207.742 155.39 209.308 154.938C212.888 153.907 217.993 153.708 220.655 150.82C222.771 153.179 224.474 155.88 226.693 158.15C229.091 160.603 231.652 162.867 233.954 165.419C236.35 168.074 238.823 170.679 241.132 173.411C242.139 174.603 243.024 175.887 244.066 177.051C244.992 178.085 245.969 179.036 244.668 180.261ZM138.276 134.387C139.376 133.803 139.516 134.169 139.515 135.373C139.199 134.795 138.885 134.64 138.276 134.387ZM128.95 157.788V155.666C130.011 155.638 129.359 157.453 128.95 157.788ZM128.691 160.948C128.691 160.008 128.666 159.114 128.937 158.2C129.079 159.196 129.351 160.058 128.691 160.948ZM133.25 225.496C134.224 225.587 135.725 224.917 136.544 225.68C137.385 226.465 137.318 228.749 137.517 229.809C137.847 231.56 138.138 233.318 138.416 235.078C138.598 236.232 138.823 237.404 137.517 237.845C135.588 238.497 132.831 237.567 130.819 237.482C126.847 237.315 122.875 237.083 118.899 237.002C115.045 236.924 111.182 236.986 107.346 237.386C105.613 237.567 103.919 237.887 102.203 238.176C101.299 238.329 98.8765 238.967 98.0598 238.206C96.5234 236.772 99.0778 233.425 100.176 232.479C102.215 230.725 105.115 229.46 107.672 228.698C109.038 228.29 111.316 227.147 112.392 228.426C113.218 229.407 113.185 230.716 114.369 231.46C117.11 233.182 115.506 228.242 113.793 227.634C114.943 224.943 117.136 228.742 118.046 229.654C118.369 229.979 119.422 231.05 119.879 230.511C120.221 230.109 119.538 228.665 119.411 228.272C119.218 227.675 118.731 226.768 118.871 226.121C119.125 224.95 120.768 224.631 121.753 224.533C123.279 224.382 124.777 224.866 126.286 225.027C128.601 225.275 130.933 225.279 133.25 225.496ZM117.923 115.204C114.909 115.444 111.876 114.983 108.87 115.36C106.026 115.717 103.345 116.761 100.664 117.72C104.65 108.377 109.808 99.8716 116.094 91.9042C119.224 87.936 122.591 83.9951 125.974 80.2395C127.548 78.4922 129.176 76.8029 130.801 75.1047C132.251 73.5897 133.289 71.0169 135.029 69.8855C136.514 68.9198 139.109 69.6086 140.755 69.6685C142.615 69.7362 144.878 69.9052 146.692 69.2865C148.007 68.8382 148.368 67.6419 146.723 67.6022C144.782 67.5552 142.873 67.7573 140.907 67.5755C135.813 67.1051 130.903 66.3321 125.767 66.7706C124.59 66.8708 123.042 67.3716 121.887 67.2213C121.057 67.1126 121.603 67.5298 121.026 66.864C120.805 66.6094 120.539 66.0107 120.473 65.6724C120.106 63.7725 121.15 61.0574 121.399 59.1446C121.63 57.3742 121.426 55.4285 121.858 53.7046C122.252 52.1358 123.452 51.9265 124.93 51.7589C128.974 51.3001 133.101 51.056 137.163 50.7102C146.433 49.9212 155.997 48.731 165.204 50.6808C168.529 51.3848 172.583 52.4734 175.553 54.2166C176.482 54.7615 177.418 55.4031 177.081 56.5321C176.73 57.7041 175.012 58.9421 174.161 59.7141C167.872 65.4192 161.798 71.2383 157.38 78.5586C151.746 87.8933 148.513 97.975 146.616 108.672C146.208 110.973 145.829 112.177 143.46 112.84C140.916 113.551 138.461 114.013 135.824 114.23C129.862 114.719 123.882 114.729 117.923 115.204ZM119.942 53.386C119.485 56.784 118.867 60.1746 118.806 63.5994C118.783 64.8929 118.66 65.5411 117.283 65.8296C115.661 66.1695 114.011 66.4228 112.38 66.7757C104.512 68.4796 96.7928 70.5723 89.0951 72.9277C81.6139 75.2174 74.2558 77.7933 66.6065 79.4894C63.3161 80.2192 59.4659 80.7108 56.469 82.3264C53.245 84.0649 53.6693 86.915 53.3799 90.0456C52.9932 94.2282 51.7519 98.2781 51.3155 102.459C51.1067 104.457 50.9166 106.467 50.9481 108.477C50.9749 110.191 51.2206 112.086 50.0678 113.528C47.755 110.438 46.6588 106.552 46.203 102.765C45.9814 100.925 46.0691 99.0691 46.0058 97.2199C45.9546 95.731 45.9878 93.3627 45.0173 92.1193C42.9075 89.4171 40.1637 100.246 39.9028 101.403C39.4639 103.349 39.102 105.312 38.6649 107.258C38.4711 108.121 38.2223 111.258 37.0654 111.57C34.668 112.218 35.1942 105.486 35.1563 104.461C35.0804 102.392 35.0288 100.321 35.0773 98.2503C35.1125 96.7556 35.4019 95.1337 35.2301 93.6383C34.8082 89.9667 32.7422 93.835 32.1614 95.2017C30.6937 98.6519 30.0299 102.345 28.7137 105.85C28.4948 106.433 27.9804 108.396 27.1654 108.433C26.2586 108.473 26.2657 106.446 26.2139 105.854C25.913 102.42 24.8967 99.0112 25.2034 95.5424C25.5131 92.0397 26.7418 88.4388 28.4806 85.3923C32.1566 78.951 38.795 75.2527 45.1535 71.8837C52.4304 68.0289 60.1128 64.9834 67.9593 62.5023C77.3961 59.5184 87.0856 57.104 96.8335 55.3859C101.793 54.5119 106.829 53.8868 111.839 53.3857C113.6 53.2096 115.361 53.1066 117.099 52.7717C117.755 52.6451 120.122 52.0434 119.942 53.386ZM125.011 42.3893C122.525 42.409 119.985 41.2045 117.563 40.7067C114.679 40.1135 111.863 39.2551 108.984 38.6358C103.347 37.4232 97.7067 36.2407 92.0748 35.0014C89.6298 34.4633 87.173 33.995 84.7376 33.417C82.1321 32.7986 79.3171 32.1092 76.6502 32.7753C72.6079 33.785 70.9003 38.2044 69.4161 41.6532C68.3676 44.0892 67.5462 46.8046 65.9112 48.9244C65.329 49.6802 64.5015 50.5816 63.4459 50.3367C61.4849 49.8823 61.7963 47.2892 62.0461 45.8558C62.408 43.7757 62.9207 41.7199 63.331 39.6492C63.4964 38.8135 64.778 33.3438 62.49 34.1907C60.7926 34.8188 59.8946 38.9561 59.2521 40.4338C58.7746 41.532 58.2687 42.623 57.7329 43.694C57.0179 45.1227 54.978 49.8962 52.7194 49.2806C49.4873 48.3995 52.5876 39.9086 53.1383 38.119C53.4405 37.1367 56.7258 29.6867 53.9529 30.2956C52.7719 30.5553 51.6215 32.7472 51.0193 33.6557C49.9515 35.2672 48.8872 36.8902 47.8821 38.5413C46.8482 40.2395 46.3202 42.1723 45.2948 43.8457C44.7554 44.7265 43.6544 45.9001 42.5795 45.0848C40.9038 43.8146 41.897 39.3963 42.1905 37.7255C42.7364 34.6194 44.0925 31.435 45.9532 28.8957C48.7492 25.0802 54.0251 23.8472 58.4615 23.106C64.188 22.1491 69.9942 22.4108 75.7448 22.977C82.212 23.6139 88.5807 24.2959 94.9555 25.5982C101.38 26.9107 107.808 28.2127 114.134 29.9485C117.114 30.7663 120.136 31.4912 123.074 32.4512C126.197 33.4715 129.245 34.7413 132.455 35.4764C131.326 38.2921 130.196 41.1077 129.067 43.9236C127.987 42.8553 126.511 42.3772 125.011 42.3893ZM180.356 50.1481C181.346 49.607 182.44 49.3517 182.801 48.1557C183.121 47.0989 182.575 45.9015 182.314 44.887C181.584 42.0467 181.392 39.1044 182.038 36.2305C182.655 37.1722 184.966 40.7945 186.372 38.6016C187.22 37.2789 184.948 35.3762 184.285 34.4464C185.74 33.549 187.818 31.1408 189.495 32.5931C190.578 33.5321 191.037 34.4362 192.497 34.8927C194.27 35.447 195.939 35.32 197.749 35.1669C199.017 35.0599 199.322 34.891 199.817 35.8662C200.206 36.6328 200.407 37.5816 200.634 38.4048C201.081 40.0278 202.117 43.2257 200.89 44.7461C199.816 46.0779 195.645 44.9361 195.066 46.6553C194.751 47.5929 196.258 47.6264 196.834 48.0903C197.547 48.6646 198.137 49.5786 198.525 50.395C198.812 50.9987 199.248 51.9963 198.76 52.6136C198.085 53.4676 196.834 52.8198 196.289 52.1991C195.567 51.3746 195.332 50.2473 194.73 49.3493C193.623 47.7016 193.557 49.0124 193.256 50.1955C192.943 51.4247 192.203 51.3401 191.069 51.4979C189.081 51.7752 187.071 52.1663 185.135 52.6989C184.143 52.9719 183.181 53.3196 182.236 53.726C181.627 53.9874 180.571 54.7794 179.911 54.7869C178.686 54.8007 177.837 52.7545 177.205 51.9008C178.255 51.3153 179.301 50.7244 180.356 50.1481ZM246.106 175.445C243.048 171.777 240.4 167.792 237.383 164.092C234.407 160.443 230.965 157.252 227.625 153.947C226.049 152.387 224.539 150.675 222.799 149.293C221.501 148.262 220.503 148.246 218.942 148.702C214.506 150.001 209.989 151.563 205.791 153.501C201.882 155.305 198.322 157.621 194.083 158.627C189.756 159.654 185.256 159.984 180.822 159.73C176.273 159.469 171.982 158.523 167.656 157.133C163.559 155.816 159.288 154.667 155.784 152.057C152.111 149.322 149.273 145.387 146.643 141.687C145.311 139.814 143.99 137.846 143.093 135.723C142.315 133.881 141.806 131.706 140.409 130.204C140.066 130.69 139.64 131.106 139.466 131.676C139.387 131.935 139.854 131.927 139.806 132.133C139.715 132.52 139.199 132.916 138.899 133.127C137.82 133.885 137.814 133.281 138.097 134.7C138.261 135.527 137.95 137.392 136.6 136.783C137.097 137.377 136.308 138.127 136.05 138.617C135.873 138.413 135.652 138.342 135.388 138.404C135.882 139.386 135.59 139.412 135.112 140.192C135.025 140.334 134.715 141.08 134.76 141.017C134.271 141.713 133.707 141.888 133.422 142.754C133.187 143.465 133.247 144.248 132.987 144.958C132.671 144.522 132.356 144.086 132.04 143.651C132.104 143.994 132.233 144.501 132.383 144.812C132.477 145.006 132.881 145.46 132.876 145.566C132.854 145.962 132.359 145.867 132.218 146.209C131.953 146.85 132.336 146.944 132.192 147.569C132.026 148.287 131.582 148 131.371 148.612C131.331 148.728 131.643 149.185 131.593 149.436C131.524 149.79 131.203 149.988 131.089 150.303C130.801 151.104 130.906 151.691 130.505 152.459C130.349 152.757 130.123 152.956 130.014 153.294C129.918 153.592 130.124 154.226 129.939 154.493C129.046 155.78 129.171 153.564 129.239 153.014C129.808 148.4 131.633 143.637 133.304 139.324C134.134 137.182 134.942 134.972 135.983 132.919C136.402 132.093 136.886 131.24 137.578 130.608C138.453 129.808 139.696 129.488 140.489 128.595C140.364 128.735 141.348 127.804 141.191 128.11C141.332 127.837 141.086 127.466 141.173 127.202C141.282 126.873 141.488 126.804 141.717 126.516C142.129 125.999 142.617 125.742 141.971 125.083C142.931 124.871 143.389 124.56 143.581 123.533C143.721 122.782 143.439 122.831 143.932 122.33C144.427 121.827 144.678 122.22 144.99 121.349C145.363 120.306 145.611 118.888 145.834 117.797C146.03 116.845 145.556 115.444 146.359 114.771C147.377 113.92 148.287 114.28 148.105 112.567C147.927 110.898 148.446 109.886 148.968 108.306C150.01 105.152 150.412 101.822 151.325 98.6299C153.274 91.8182 156.716 85.6767 160.418 79.6808C163.839 74.1403 168.621 69.4199 173.239 64.874C174.503 63.6289 175.753 62.3658 176.888 61.0009C177.866 59.8255 178.313 58.2252 179.253 57.1094C179.824 56.4319 180.887 56.142 181.684 55.7827C183.014 55.1834 184.599 54.4015 186.1 54.5227C185.503 56.5318 185.309 58.8794 187.069 60.3859C189.204 62.2135 191.139 60.3148 193.096 59.2729C196.664 57.3736 201.766 59.1171 204.877 56.2704C205.618 55.5924 205.825 54.5092 206.595 53.876C207.16 53.4117 207.964 53.2939 208.601 52.9478C210.534 51.8964 211.472 49.9717 210.72 47.8455C210.032 45.9018 208.963 45.2276 211.342 44.2426C213.274 43.4435 214.008 42.2393 213.134 40.0955C212.3 38.0516 210.773 37.8163 209.328 36.4788C207.929 35.1832 209.536 33.6753 210.585 32.7028C211.937 31.4482 212.195 30.3176 210.628 29.0129C208.986 27.6469 206.643 27.6946 204.729 28.3702C202.565 29.1338 201.14 30.4033 200.224 32.4604C199.292 34.5547 196.98 33.9703 195.108 33.3865C193.318 32.8284 192.852 31.6243 191.677 30.3277C190.369 28.8856 187.705 30.1188 186.163 30.7778C182.365 32.3997 178.591 34.9597 178.44 39.4942C178.35 42.198 179.494 44.4962 180.089 47.0342C180.634 49.3551 176.902 49.1722 176.256 51.4173C169.363 47.771 161.687 46.6553 153.982 46.4071C145.792 46.1429 137.485 45.9313 129.365 47.2221C131.25 43.9409 132.245 40.3427 133.885 36.9718C134.357 36.0013 134.561 36.0843 135.602 36.3775C137.603 36.9406 139.589 37.5708 141.586 38.1509C148.881 40.2699 156.033 42.8231 163.087 45.6194C163.773 45.8913 165.303 46.6461 165.904 45.8253C166.597 44.8789 164.994 43.712 164.344 43.2359C161.504 41.1537 157.984 39.89 154.803 38.4292C147.849 35.2364 140.147 33.7207 132.891 31.3494C117.225 26.2291 101.019 22.3404 84.739 19.772C80.7661 19.1452 76.7509 19.0534 72.7607 18.5882C69.2263 18.1761 65.6855 18.1855 62.1514 18.6112C55.6242 19.3978 48.0569 21.095 44.3704 27.0655C41.0424 32.4563 38.8208 38.5172 39.67 44.9117C39.9251 46.8324 40.7391 49.1069 43.1108 48.6118C44.756 48.2684 45.6296 46.8716 46.3934 45.5084C47.5476 43.4489 48.6876 41.3894 49.9383 39.3851C50.4022 42.3904 48.7164 45.3455 48.9814 48.4069C49.1616 50.4844 50.3104 53.7666 53.0095 53.1784C56.7089 52.3725 58.2314 46.5974 60.0101 43.8268C60.1003 45.9608 59.3517 48.0639 59.5808 50.2026C59.8068 52.3153 61.4588 54.3097 63.779 54.0202C65.9674 53.7473 67.3896 51.4044 68.3192 49.6405C69.6126 47.1859 70.5418 44.5541 71.8051 42.0832C72.9891 39.7671 74.3917 37.0097 77.2185 36.5746C79.7414 36.1858 82.6326 37.0856 85.1246 37.4567C92.0371 38.4861 98.8104 40.2388 105.647 41.6549C112.978 43.1729 120.482 44.095 127.587 46.5445C125.089 49.9422 118.551 49.2081 114.83 49.5728C109.206 50.1241 103.51 50.5389 97.9178 51.3522C92.395 52.1555 86.9877 53.5814 81.5079 54.6165C76.0569 55.6463 70.6153 56.6777 65.3409 58.4338C55.5479 61.6944 45.5917 65.8208 36.9634 71.5099C32.9489 74.1572 29.3826 77.1828 26.9028 81.3613C24.4071 85.566 23.2078 90.3205 22.7503 95.157C22.4657 98.1687 22.9492 100.775 23.5331 103.706C23.956 105.828 24.0929 109.381 25.7957 110.935C29.0458 113.901 31.7442 101.871 32.3443 100.418C32.7764 102.799 32.0699 116.214 37.2847 115.123C39.612 114.636 40.14 111.444 40.526 109.521C41.2301 106.016 41.8608 102.441 43.0651 99.065C43.838 103.613 44.1603 108.352 45.8255 112.696C46.9316 115.581 50.0874 120.7 52.2877 115.761C53.938 112.057 53.3717 107.806 53.5696 103.873C53.7889 99.515 55.041 95.3114 55.4842 90.9961C55.656 89.3243 55.5005 87.4402 57.1816 86.528C58.6248 85.7451 60.7353 85.4901 62.311 85.053C66.9783 83.7581 71.676 82.5678 76.3212 81.1941C80.9684 79.8193 85.5512 78.2132 90.1364 76.6457C94.5217 75.1467 98.9992 74.2944 103.438 73.0107C105.961 72.2806 108.454 71.517 111.013 70.9075C112.204 70.6241 113.409 70.4033 114.597 70.1097C115.478 69.8923 116.638 69.0718 117.544 69.0864C118.476 69.1016 118.826 69.8899 119.894 69.9519C121.045 70.0183 122.215 69.7647 123.359 69.677C126.146 69.4633 129.109 69.1179 131.889 69.5039C130.218 71.4848 127.961 72.8542 125.983 74.4952C123.701 76.3877 121.493 78.4313 119.544 80.6662C115.623 85.163 111.916 89.9162 108.473 94.7879C105.077 99.5939 102.342 104.853 99.9646 110.226C98.7799 112.904 97.6298 115.64 96.8114 118.454C96.4753 119.61 96.2008 120.77 95.5939 121.822C95.0371 122.786 94.2527 123.618 94.9107 124.782C95.3638 124.499 95.7708 124.147 96.1805 123.806C95.7071 127.139 94.6854 130.362 94.1601 133.684C93.6424 136.957 93.6634 140.324 93.6969 143.629C93.7674 150.552 94.2825 157.318 95.6878 164.108C97.109 170.974 98.9348 177.788 101.237 184.412C103.453 190.79 105.677 197.478 108.771 203.489C112.075 209.909 116.005 216.659 120.788 222.093C117.664 223.372 113.688 223.133 110.38 223.648C106.922 224.186 103.931 225.203 100.984 227.114C98.0029 229.049 96.3845 231.54 95.9724 235.068C95.6796 237.579 94.8098 241.055 98.1063 241.715C100.477 242.189 103.128 241.41 105.504 241.217C109.66 240.881 113.822 240.67 117.987 240.489C122.141 240.308 126.296 240.148 130.451 240.02C132.406 239.959 134.362 239.928 136.316 239.858C137.191 239.827 137.722 239.814 138.507 240.067C139.128 240.267 139.083 240.682 139.774 240.169C140.889 239.34 140.66 236.727 140.628 235.579C140.581 233.806 140.413 232.013 140.067 230.274C139.861 229.241 137.369 222.579 139.307 222.299C137.055 219.826 136.156 216.295 135.144 213.196C133.877 209.314 132.765 205.442 131.891 201.448C130.026 192.918 129.201 184.295 129.201 175.567C137.849 180.893 146.998 183.778 157.183 184.1C167.309 184.42 178.433 183.589 188.049 180.223C192.501 178.664 196.49 176.617 200.308 173.858C201.676 172.87 203.142 170.631 204.938 170.669C207.081 170.715 209.481 171.526 211.61 171.873C215.68 172.536 220.993 172.91 224.439 175.426C226.311 176.793 227.653 178.705 229.323 180.28C230.594 181.478 232.275 182.129 233.536 183.327C234.897 184.619 234.356 186.308 236.613 186.412C238.542 186.501 240.656 185.726 242.32 184.816C245.639 183 249.173 179.124 246.106 175.445Z" fill="#FB5547"/>
<path fill-rule="evenodd" clip-rule="evenodd" d="M214.206 89.0673C219.063 92.5148 224.634 94.8699 229.71 97.9747C230.98 98.7518 234.938 100.365 234.9 101.807C234.877 102.65 233.688 103.706 233.167 104.291C232.275 105.291 231.435 106.302 230.612 107.361C226.843 112.208 223.294 117.101 219.209 121.705C218.594 122.398 216.741 125.704 216.143 124.062C215.872 123.317 216.096 122.481 215.389 121.786C215.025 121.429 213.62 121.232 214.029 120.465C214.302 120.587 214.575 120.71 214.849 120.832C214.636 120.22 214.652 119.548 214.334 118.969C214.137 118.609 213.751 118.438 213.617 118.033C213.432 117.473 213.745 116.822 213.693 116.245C213.641 115.669 213.343 115.125 213.164 114.582C212.107 111.362 211.728 108.117 211.187 104.795C210.652 101.508 209.818 98.3238 209.49 95.0003C209.144 91.4898 208.72 87.9864 208.155 84.5041C209.164 84.6456 209.94 85.7417 210.654 86.3614C211.777 87.3353 212.995 88.2079 214.206 89.0673ZM210.398 123.053C210.167 122.872 209.985 122.648 209.855 122.383C212.235 121.205 210.799 123.215 210.398 123.053ZM208.951 120.54C207.913 120.826 207.168 120.884 206.368 120.457C206.292 120.417 206.379 120.105 206.242 120.041C206.123 119.986 205.94 120.054 205.838 120.002C205.489 119.825 204.879 120.213 204.82 119.535C206.144 119.13 207.447 118.383 208.845 118.257C210.788 118.082 210.698 120.059 208.951 120.54ZM204.405 116.633C202.989 116.963 201.822 117.736 200.318 117.534C198.906 117.345 197.679 116.614 196.565 115.77C199.352 114.982 202.274 114.84 205.058 114.077C205.964 113.829 207.156 113.175 208.132 113.438C209.218 113.732 209.286 114.748 209.612 115.672C207.875 115.984 206.124 116.231 204.405 116.633ZM195.55 112.71C194.189 113.035 192.799 113.745 191.662 112.519C191.478 112.322 191.318 112.519 191.339 111.91C191.362 111.268 191.945 110.854 192.447 110.628C193.627 110.096 195.281 110.44 196.534 110.361C198.533 110.237 200.568 109.822 202.545 109.502C203.914 109.281 205.328 108.79 206.728 108.887C207.808 108.962 209.111 109.882 207.537 110.553C206.103 111.165 203.953 111.071 202.4 111.336C200.104 111.727 197.816 112.169 195.55 112.71ZM194.221 106.316C194.309 106.405 194.397 106.495 194.485 106.585C194.471 106.581 195.007 106.148 195.149 106.135C195.838 106.075 196.532 106.123 197.223 106.084C198.814 105.994 200.418 105.717 201.981 105.412C203.254 105.163 204.551 104.735 205.861 104.842C206.996 104.935 207.115 105.167 207.189 106.261C204.293 106.261 201.31 106.2 198.464 106.813C196.611 107.212 194.569 108.399 193.641 106.259C193.834 106.278 194.027 106.297 194.221 106.316ZM196.032 101.684C196.75 102.23 198.707 101.321 199.568 101.231C200.503 101.132 201.382 101.029 202.288 100.796C203.091 100.59 205.748 99.5584 206.364 100.545C207.308 102.056 203.484 102.333 202.878 102.408C200.336 102.722 197.697 103 195.223 103.667C195.493 103.006 195.762 102.345 196.032 101.684ZM199.519 96.5505C199.705 97.249 205.455 94.6749 205.559 96.5457C205.64 97.9811 199.871 98.6963 198.833 98.5703C199.076 97.9093 199.722 97.3174 199.519 96.5505ZM201.45 92.1596C201.572 90.7506 201.761 90.7587 202.892 90.626C203.754 90.5247 204.94 90.0195 204.715 91.5555C204.523 92.8707 201.327 93.5814 201.45 92.1596ZM203.505 87.3116C203.777 86.5551 204.389 87.5733 204.402 87.958C204.436 88.9816 203.66 88.7602 202.912 88.7602C203.12 88.2821 203.318 87.7985 203.505 87.3116ZM212.968 81.6333C212.816 81.4497 211.96 81.3797 211.716 81.2906C211.117 81.0712 211.202 80.6035 210.436 81.0647C210.397 81.0261 210.47 80.6794 210.429 80.6635C210.408 80.6553 209.871 80.4529 209.696 80.3411C209.275 80.0716 208.895 79.8078 208.508 79.4695C208.097 79.1102 207.685 78.5888 207.215 78.3026C207.017 78.1821 206.855 78.0111 206.616 77.9742C205.996 77.8787 206.173 78.3101 205.632 78.3957C205.298 78.4486 205.055 78.0592 204.618 78.2271C204.241 78.372 204.022 78.9006 203.854 79.2152C203.243 80.3601 202.772 81.5923 202.174 82.7494C199.115 88.6661 195.639 94.3582 192.676 100.33C191.249 103.207 189.76 106.104 188.756 109.161C188.032 111.366 186.396 114.588 187.803 116.791C188.826 118.393 190.875 119.085 192.509 119.859C194.968 121.024 197.235 122.546 199.721 123.676C202.686 125.022 205.565 126.431 208.455 127.935C209.688 128.576 210.8 129.5 212.028 130.107C212.779 130.479 213.94 129.845 214.184 130.696C215.126 129.557 216.65 130.317 217.74 129.514C218.381 129.042 218.849 128.112 219.383 127.531C220.185 126.659 221.055 125.85 221.873 124.994C225.12 121.593 228.118 118.05 231.072 114.397C233.893 110.908 237.189 107.612 239.573 103.793C240.519 102.277 240.691 100.687 240.066 99.0122C239.61 97.7905 238.511 95.9457 236.942 96.7546C237.537 95.7672 235.242 94.7128 234.545 94.5198C234.535 94.5171 234.397 95.2756 234.203 95.2566C234.272 95.2634 233.62 93.576 233.333 93.3597C232.482 92.7159 231.446 91.9649 230.517 91.4349C229.665 90.949 228.766 90.7083 227.941 90.1644C226.941 89.5055 226.023 88.724 225.019 88.0694C224.049 87.4375 222.968 86.6906 221.897 86.2561C220.968 85.8792 220.133 85.8054 219.297 85.1878C218.263 84.4235 217.361 83.9051 216.168 83.3785C215.137 82.9231 213.707 82.5252 212.968 81.6333Z" fill="#FB5547"/>
<path fill-rule="evenodd" clip-rule="evenodd" d="M168.243 122.708C168.022 123.234 165.962 123.057 165.917 122.437C165.85 121.51 168.626 121.794 168.243 122.708ZM170.431 122.364C171.598 122.459 173.516 123.251 174.641 122.772C176.358 122.041 174.555 120.92 173.634 120.585C172.697 120.244 171.3 120.425 170.819 119.446C170.456 118.709 171.352 116.653 170.24 116.983C169.074 117.33 169.413 120.275 167.583 119.283C166.71 118.809 167.066 115.923 165.604 117.398C165.204 117.801 165.169 118.541 164.639 118.842C164.098 119.149 163.42 118.829 162.849 118.856C161.337 118.927 160.856 120.34 162.387 120.9C162.954 121.108 165.091 121.361 163.797 122.287C162.981 122.87 161.169 121.646 160.469 122.661C159.506 124.056 162.085 124.087 162.777 124.504C163.951 125.211 162.982 126.861 163.075 128.036C163.218 129.831 164.262 129.456 164.641 127.937C164.963 126.648 164.564 124.792 166.509 125.304C169.676 126.139 164.748 130.156 167.068 131.184C168.547 131.84 168.757 128.296 168.871 127.686C169.297 125.434 170.563 125.96 172.481 126.029C174.721 126.109 175.262 124.453 172.889 123.979C172.132 123.827 171.091 124.019 170.434 123.537C170.045 123.252 169.51 122.289 170.431 122.364Z" fill="#FB5547"/>
<path fill-rule="evenodd" clip-rule="evenodd" d="M87.7047 195.944C85.8914 195.295 82.8578 195.435 82.4092 197.775C82.2215 198.755 82.5871 199.791 83.2642 200.503C84.0493 201.328 85.2997 201.404 85.233 199.967C85.1865 198.973 84.2394 198.109 85.9046 197.909C86.9409 197.784 88.4736 198.558 88.5251 199.702C88.6416 202.28 84.1754 202.483 82.5295 202.037C79.2628 201.152 80.1503 197.733 82.3936 196.173C82.9731 195.77 84.6359 195.148 84.7118 194.311C84.8128 193.2 83.4383 193.427 82.7647 193.574C77.8128 194.651 76.7335 202.94 81.9077 204.503C84.2574 205.212 87.5664 204.48 88.9825 202.353C90.3102 200.359 90.3282 196.882 87.7047 195.944Z" fill="#FB5547"/>
<path fill-rule="evenodd" clip-rule="evenodd" d="M248.983 62.9223C248.06 62.585 246.918 61.9264 245.892 62.1509C244.802 62.3893 244.364 63.4803 243.571 64.1362C241.416 65.9197 240.161 63.2616 238.977 61.8048C237.859 60.4294 236.494 60.0955 234.917 60.9407C234.288 61.2776 231.64 62.8214 232.102 63.8105C232.434 64.5222 233.742 63.8833 234.188 63.7278C235.157 63.3909 236.057 63.096 237.048 63.5873C238.906 64.5084 239.389 67.0341 241.637 67.4279C243.963 67.8353 244.039 65.6241 245.698 64.7918C246.811 64.2341 247.586 65.2215 248.659 65.0247C249.682 64.8375 250.155 63.3503 248.983 62.9223Z" fill="#FB5547"/>
<path fill-rule="evenodd" clip-rule="evenodd" d="M230.21 71.8336C231.032 72.012 231.569 70.4182 232.084 70.0138C232.937 69.3437 234.418 69.2086 235.287 69.8831C236.986 71.1997 236.4 74.0421 238.818 74.783C240.979 75.4453 241.997 72.6012 243.816 71.8932C244.874 71.4814 246.035 71.2119 245.622 69.7345C245.337 68.7129 244.497 68.4504 243.584 68.8429C242.015 69.5168 241.483 72.2619 239.623 72.311C237.698 72.3618 237.489 69.5896 236.663 68.382C235.404 66.5416 232.814 66.097 231.343 67.8568C230.899 68.3878 228.643 71.4946 230.21 71.8336Z" fill="#FB5547"/>
<path fill-rule="evenodd" clip-rule="evenodd" d="M192.169 40.406C193.313 41.1882 195.593 41.1611 196.647 40.191C197.72 39.2039 196.288 39.0522 195.414 39.0824C194.742 39.1057 193.485 39.4386 193.867 38.2788C194.207 37.2498 196.076 37.7736 196.231 36.644C194.825 36.392 193.277 36.4828 192.237 37.587C191.485 38.3851 191.099 39.6736 192.169 40.406Z" fill="#FB5547"/>
</svg>
