<svg width="390" height="844" viewBox="0 0 390 844" fill="none" xmlns="http://www.w3.org/2000/svg">
<path d="M341.971 841.781C297.288 877.767 252.298 907.573 208.784 928.938C208.03 929.308 207.2 929.5 206.36 929.5C183.246 929.5 153.242 917.138 119.615 896.284C97.1744 882.368 72.7672 864.441 47.2133 843.263L64.5014 843.176C85.9924 860.451 106.47 875.19 125.412 886.937C158.034 907.167 185.338 918.039 205.109 918.484C243.963 899.281 284.092 873.187 324.161 841.87L341.971 841.781ZM273.526 842.125C249.62 858.648 225.364 873.893 200.913 887.635C200.09 888.097 199.162 888.34 198.218 888.34C189.467 888.34 179.029 885.272 167.511 880.031C155.896 874.747 142.734 867.043 128.403 857.291C121.99 852.928 115.325 848.139 108.436 842.955L126.927 842.861C129.523 844.707 132.078 846.487 134.591 848.197C148.606 857.734 161.207 865.077 172.067 870.019C182.257 874.655 190.539 876.998 196.832 877.304C215.962 866.507 234.977 854.777 253.797 842.225L273.526 842.125ZM221.389 842.387C216.319 845.164 211.272 847.804 206.251 850.295C205.492 850.672 204.655 850.868 203.807 850.868C193.715 850.868 182.079 847.958 169.296 842.649L221.389 842.387ZM-292.594 -30.6102C-179.612 -102.878 -54.3452 -85.0131 41.8686 -49.705C90.0428 -32.0261 131.189 -9.88969 160.284 7.81458C174.838 16.6708 186.394 24.4291 194.325 29.9835C198.29 32.7607 201.35 34.9875 203.427 36.5265C203.447 36.5414 203.468 36.5566 203.488 36.5714C203.595 36.5028 203.705 36.4321 203.817 36.3605C206.165 34.8612 209.621 32.6908 214.077 29.9874C222.988 24.581 235.907 17.0393 251.986 8.47083C284.127 -8.65776 328.971 -29.9341 379.712 -46.4618C480.836 -79.4004 607.232 -94.0413 702.443 -16.5223C759.232 29.7139 775.496 103.162 764.059 188.153C752.619 273.167 713.386 370.832 657.638 467.397C589.444 585.521 496.114 702.703 397.541 793.737L397.398 778.837C492.24 689.756 581.995 576.423 648.112 461.898C703.473 366.003 741.981 269.745 753.158 186.686C764.337 103.606 748.095 34.8311 695.499 -7.99207C604.856 -81.7916 483.391 -68.6637 383.12 -36.0028C333.163 -19.7308 288.925 1.25027 257.159 18.1788C241.284 26.6388 228.543 34.0768 219.783 39.3917C215.403 42.0489 212.018 44.1751 209.737 45.632C208.596 46.3602 207.731 46.9215 207.155 47.298C206.867 47.4861 206.65 47.628 206.508 47.7218C206.437 47.7686 206.385 47.8038 206.351 47.8263C206.334 47.8374 206.321 47.8457 206.314 47.8507C206.31 47.853 206.308 47.8544 206.306 47.8556L203.252 43.2823L206.306 47.8566C204.335 49.1721 201.742 49.0771 199.873 47.6212C199.871 47.6202 199.869 47.6193 199.867 47.6173C199.86 47.6125 199.85 47.604 199.835 47.5929C199.807 47.5706 199.762 47.5354 199.701 47.4884C199.578 47.394 199.39 47.2505 199.139 47.0597C198.637 46.6778 197.88 46.1064 196.878 45.3644C194.876 43.8803 191.895 41.711 188.014 38.9933C180.252 33.5567 168.894 25.9298 154.566 17.2111C125.896 -0.234787 85.4036 -22.0106 38.0786 -39.3778C-56.7068 -74.1617 -177.882 -90.9268 -286.667 -21.3446C-364.414 28.3857 -384.229 110.726 -366.449 208.174C-348.638 305.788 -293.187 417.376 -222.031 523.01C-150.931 628.56 -64.4623 727.709 14.8706 800.413C16.0922 801.533 17.3128 802.645 18.5307 803.752L13.6655 814.186C11.595 812.315 9.51782 810.429 7.43796 808.523C-72.5484 735.219 -159.581 635.409 -231.154 529.155C-302.671 422.985 -359.066 309.923 -377.27 210.149C-395.505 110.209 -375.502 22.4206 -292.594 -30.6102ZM-258.257 -4.89246C-152.328 -72.3118 -36.0957 -53.2608 52.8198 -18.0272C97.3444 -0.383881 135.283 21.4103 162.08 38.7794C175.485 47.4685 186.121 55.0623 193.417 60.4943C196.846 63.0464 199.538 65.1225 201.436 66.6115C203.578 65.1175 206.688 62.9813 210.677 60.3312C218.819 54.9223 230.626 47.367 245.332 38.7491C274.73 21.5226 315.796 0.00306702 362.39 -17.0956C455.214 -51.159 571.899 -68.3299 661.241 4.04895C714.28 47.0176 733.4 112.109 727.311 187.571C721.229 262.948 690 349.319 641.535 436.297C581.865 543.383 495.73 651.979 397.053 742.844L396.911 727.966C491.612 639.354 574.259 534.432 631.925 430.943C679.956 344.744 710.436 259.932 716.346 186.687C722.249 113.527 703.645 52.5585 654.317 12.5958C569.729 -55.9317 458.143 -40.5175 366.179 -6.76941C320.38 10.0377 279.921 31.23 250.894 48.2394C236.389 56.7392 224.757 64.1828 216.764 69.4933C212.768 72.1481 209.682 74.2696 207.602 75.7218C206.563 76.4476 205.774 77.0063 205.249 77.381C204.987 77.5682 204.791 77.7097 204.662 77.8029C204.597 77.8492 204.55 77.8841 204.519 77.9064C204.504 77.9173 204.493 77.9259 204.486 77.9308C204.483 77.933 204.481 77.9345 204.479 77.9357L201.238 73.4923L204.478 77.9366C202.447 79.4173 199.67 79.3329 197.733 77.7316V77.7306C197.732 77.7296 197.73 77.7285 197.728 77.7267C197.722 77.7221 197.713 77.7149 197.7 77.7042C197.673 77.6827 197.633 77.6484 197.577 77.6027C197.464 77.511 197.292 77.3714 197.062 77.1857C196.602 76.814 195.908 76.2575 194.989 75.5343C193.151 74.0876 190.413 71.9714 186.848 69.3175C179.717 64.0089 169.277 56.5537 156.096 48.0099C129.719 30.913 92.4361 9.50329 48.768 -7.80066C-38.7024 -42.4617 -150.742 -60.283 -252.351 4.38684C-288.839 27.61 -311.014 58.2745 -321.87 94.2296C-332.764 130.313 -332.35 172.05 -323.005 217.359C-304.298 308.058 -250.086 411.748 -182.361 509.939C-115.194 607.321 -35.0501 698.842 35.9985 766.285L31.0991 776.793C30.7361 776.451 30.3717 776.109 30.0083 775.765C-41.9706 707.67 -123.305 614.934 -191.416 516.184C-259.463 417.524 -314.633 312.402 -333.778 219.58C-343.359 173.128 -343.988 129.426 -332.401 91.0499C-320.775 52.546 -296.943 19.7295 -258.257 -4.89246ZM-218.815 27.714C-124.866 -33.0212 -18.3904 -12.9655 63.5805 21.4034C104.667 38.6302 139.926 59.5786 164.9 76.2042C177.394 84.5217 187.333 91.7698 194.16 96.9484C197.227 99.2747 199.665 101.186 201.428 102.588C203.424 101.17 206.253 99.1889 209.837 96.7521C217.457 91.5719 228.498 84.3263 242.221 76.0343C269.652 59.4599 307.886 38.6553 351.011 21.8156C363.381 16.9855 376.2 12.4645 389.319 8.45911L383.009 21.9913C373.52 25.1041 364.169 28.4863 355.013 32.0616C312.649 48.6042 274.994 69.0841 247.911 85.4484C234.377 93.6255 223.502 100.763 216.022 105.849C212.282 108.391 209.393 110.42 207.444 111.809C206.47 112.503 205.731 113.037 205.239 113.395C204.993 113.573 204.808 113.708 204.687 113.797C204.627 113.841 204.582 113.874 204.553 113.896C204.539 113.906 204.528 113.914 204.522 113.919L204.515 113.924C202.536 115.392 199.832 115.361 197.892 113.873L197.707 113.725C197.705 113.724 197.704 113.722 197.702 113.72C197.696 113.715 197.687 113.708 197.675 113.698C197.651 113.678 197.612 113.646 197.559 113.603C197.454 113.515 197.292 113.382 197.077 113.205C196.645 112.852 195.994 112.323 195.133 111.635C193.411 110.258 190.847 108.242 187.512 105.712C180.841 100.652 171.087 93.5372 158.804 85.3605C134.224 68.9972 99.5902 48.4298 59.3266 31.548C-21.4023 -2.30016 -123.46 -20.8321 -212.842 36.9513C-276.615 78.179 -292.471 147.675 -276.899 230.8C-261.307 314.027 -214.325 409.575 -154.326 500.209C-94.3789 590.763 -21.7353 675.967 44.7007 738.474C45.6914 739.406 46.6816 740.332 47.6694 741.254L42.7837 751.732C40.9152 750 39.0404 748.252 37.1626 746.485C-29.9097 683.38 -103.098 597.521 -163.499 506.281C-223.846 415.121 -271.729 318.142 -287.711 232.826C-303.713 147.409 -287.853 72.3456 -218.815 27.714ZM-187.895 58.5675C-99.6706 2.21336 -1.2507 25.003 74.0161 60.8605C111.757 78.8407 144.033 100.26 166.858 117.165C178.278 125.623 187.351 132.965 193.581 138.203C196.027 140.26 198.035 141.993 199.576 143.343C201.239 141.925 203.44 140.074 206.136 137.861C212.735 132.446 222.308 124.854 234.241 116.118C258.089 98.6592 291.45 76.5648 329.405 58.1339C343.979 51.0569 359.318 44.4804 375.121 38.9122L368.525 53.0587C356.824 57.5643 345.346 62.6217 334.209 68.0294C297.033 86.0824 264.25 107.782 240.739 124.994C228.992 133.594 219.58 141.059 213.115 146.364C209.883 149.017 207.388 151.129 205.707 152.572C204.868 153.294 204.231 153.849 203.808 154.22C203.597 154.405 203.438 154.545 203.334 154.637C203.283 154.683 203.244 154.718 203.219 154.739C203.207 154.75 203.198 154.758 203.193 154.763C203.191 154.765 203.189 154.767 203.188 154.768L199.522 150.667L203.187 154.768C201.138 156.599 198.065 156.63 195.983 154.878L195.785 154.703C195.783 154.702 195.782 154.701 195.78 154.699C195.775 154.695 195.767 154.687 195.756 154.677C195.734 154.656 195.699 154.624 195.652 154.58C195.556 154.493 195.409 154.359 195.213 154.182C194.821 153.826 194.228 153.294 193.444 152.6C191.876 151.212 189.541 149.178 186.501 146.622C180.421 141.51 171.526 134.311 160.311 126.005C137.866 109.381 106.206 88.3801 69.2856 70.7911C-4.77063 35.5103 -98.5793 14.5678 -181.974 67.837C-211.937 86.9764 -230.015 112.348 -238.728 142.186C-247.481 172.157 -246.869 206.95 -238.807 244.847C-222.667 320.717 -176.964 407.674 -120.037 490.143C-63.2977 572.338 4.2775 649.623 63.9214 706.395L59.021 716.906C58.2628 716.19 57.5023 715.47 56.7417 714.747C-3.5347 657.432 -71.7822 579.41 -129.089 496.392C-186.335 413.463 -232.981 325.095 -249.566 247.136C-257.866 208.118 -258.71 171.37 -249.288 139.103C-239.826 106.702 -220.095 79.1357 -187.895 58.5675ZM390.011 8.24817C467.709 -15.3468 555.832 -20.7487 623.514 34.9454C670.873 73.9162 683.674 137.225 673.365 210.529C663.043 283.92 629.446 368.6 582.214 452.316C532.272 540.836 466.769 628.816 396.659 701.722L396.507 685.924C462.865 615.512 524.854 531.597 572.633 446.91C619.498 363.844 652.413 280.518 662.472 208.997C672.543 137.39 659.593 78.8801 616.525 43.4396C552.178 -9.5102 467.09 -4.23958 390.121 19.7179L390.011 8.24817ZM-150.306 99.4933C-75.7359 51.2548 12.9352 72.5251 81.6206 104.591C116.132 120.703 146.047 139.737 167.317 154.726C177.959 162.225 186.456 168.725 192.303 173.359C194.587 175.168 196.467 176.694 197.914 177.884C199.533 176.629 201.684 174.982 204.319 173.01C210.709 168.227 219.959 161.518 231.431 153.785C254.36 138.33 286.25 118.731 322.001 102.245C331.531 97.8508 341.356 93.6677 351.376 89.84L344.601 104.372C338.523 106.88 332.516 109.51 326.608 112.234C291.56 128.396 260.199 147.66 237.579 162.907C226.277 170.525 217.176 177.127 210.91 181.817C207.777 184.161 205.354 186.028 203.72 187.303C202.903 187.94 202.283 188.43 201.871 188.758C201.665 188.922 201.51 189.046 201.409 189.127C201.358 189.168 201.32 189.198 201.296 189.217C201.285 189.226 201.276 189.234 201.271 189.238L201.265 189.242C199.194 190.919 196.218 190.87 194.204 189.125V189.124C194.203 189.123 194.201 189.123 194.2 189.121C194.195 189.117 194.188 189.111 194.177 189.102C194.156 189.084 194.123 189.055 194.079 189.017C193.988 188.939 193.85 188.821 193.665 188.664C193.294 188.35 192.736 187.879 191.998 187.266C190.521 186.039 188.324 184.241 185.471 181.98C179.764 177.457 171.433 171.083 160.981 163.718C140.062 148.977 110.72 130.315 76.9673 114.558C9.12503 82.8856 -74.7655 63.7274 -144.332 108.729C-193.812 140.737 -205.345 195.488 -191.594 261.875C-177.831 328.32 -138.907 404.913 -89.6841 477.73C-40.5156 550.466 18.6286 618.995 72.3637 669.283C74.4349 671.222 76.4992 673.131 78.5522 675.013L73.6811 685.461C70.7531 682.8 67.8067 680.084 64.8471 677.315C10.4932 626.447 -49.1815 557.286 -98.7964 483.89C-148.357 410.573 -188.181 332.59 -202.366 264.106C-216.563 195.564 -205.243 135.031 -150.306 99.4933ZM390.257 33.9445C452.283 15.1085 519.795 13.6972 575.433 58.9347C619.617 94.8596 635.808 150.179 631.313 214.361C626.821 278.495 601.68 352.198 562.29 426.359C520.698 504.667 462.983 583.916 396.196 653.449L396.044 637.639C458.773 570.901 513.04 495.634 552.576 421.198C591.544 347.83 615.993 275.658 620.339 213.593C624.683 151.576 608.96 100.371 568.494 67.4698C515.927 24.7294 451.224 26.278 390.368 45.4093L390.257 33.9445ZM-116.75 131.204C-49.4119 88.1044 30.5624 111.105 92.2055 143.348C123.225 159.573 150.108 178.389 169.219 193.128C178.782 200.503 186.418 206.872 191.672 211.405C193.466 212.953 194.981 214.288 196.203 215.376C197.583 214.219 199.329 212.772 201.413 211.076C207.145 206.411 215.443 199.858 225.735 192.277C246.302 177.128 274.915 157.814 307.002 141.261C315.506 136.874 324.274 132.67 333.22 128.784L326.077 144.104C321.344 146.339 316.662 148.656 312.045 151.037C280.64 167.239 252.535 186.198 232.258 201.134C222.128 208.595 213.972 215.039 208.356 219.609C205.549 221.893 203.377 223.709 201.913 224.948C201.181 225.568 200.626 226.045 200.256 226.363C200.072 226.522 199.934 226.642 199.843 226.721C199.798 226.76 199.764 226.789 199.743 226.808C199.732 226.817 199.724 226.824 199.719 226.828C199.717 226.83 199.716 226.831 199.715 226.832L196.088 222.697L199.714 226.832C197.585 228.699 194.386 228.645 192.322 226.705V226.704C192.321 226.704 192.32 226.703 192.319 226.702C192.315 226.699 192.308 226.692 192.298 226.684C192.28 226.666 192.251 226.638 192.21 226.601C192.13 226.526 192.005 226.41 191.839 226.257C191.507 225.951 191.006 225.493 190.344 224.895C189.019 223.698 187.047 221.943 184.486 219.734C179.362 215.313 171.884 209.074 162.501 201.838C143.721 187.355 117.389 168.934 87.1079 153.095C26.151 121.211 -48.812 100.78 -110.82 140.469C-133.066 154.708 -146.126 173.784 -152.011 196.401C-157.937 219.173 -156.656 245.84 -149.558 275.108C-135.347 333.703 -98.1844 401.25 -52.481 465.511C-6.84091 529.682 46.9987 590.135 94.0923 634.5C94.8705 635.233 95.6471 635.962 96.4214 636.686L91.5356 647.166C89.8821 645.633 88.219 644.08 86.5493 642.507C38.943 597.659 -15.3752 536.662 -61.4449 471.887C-107.451 407.201 -145.55 338.305 -160.249 277.7C-167.605 247.368 -169.191 218.744 -162.657 193.631C-156.081 168.361 -141.354 146.953 -116.75 131.204ZM-67.4868 172.528C-10.1164 135.535 58.1593 155.527 110.562 183.192C136.967 197.131 159.859 213.279 176.133 225.919C184.278 232.245 190.783 237.708 195.262 241.598C196.527 242.697 197.631 243.671 198.565 244.503C199.621 243.606 200.888 242.537 202.356 241.321C207.185 237.32 214.175 231.701 222.844 225.2C240.166 212.211 264.279 195.641 291.343 181.422C298.597 177.611 306.086 173.959 313.732 170.583L306.514 186.064C303.128 187.715 299.774 189.418 296.458 191.159C270.079 205.019 246.475 221.229 229.443 234.001C220.935 240.381 214.087 245.888 209.374 249.792C207.017 251.744 205.196 253.295 203.969 254.353C203.356 254.881 202.891 255.287 202.582 255.558C202.429 255.693 202.313 255.795 202.238 255.861C202.2 255.895 202.172 255.92 202.155 255.936C202.146 255.943 202.14 255.949 202.136 255.952L202.132 255.955C200.001 257.858 196.768 257.812 194.692 255.85L194.689 255.847C194.686 255.844 194.68 255.838 194.672 255.831C194.657 255.817 194.632 255.793 194.598 255.762C194.53 255.698 194.426 255.601 194.286 255.471C194.005 255.211 193.581 254.82 193.019 254.31C191.896 253.289 190.223 251.79 188.049 249.902C183.7 246.126 177.35 240.793 169.385 234.607C153.44 222.221 131.095 206.471 105.426 192.92C53.6827 165.603 -9.52969 148.245 -61.5259 181.773C-98.4076 205.555 -107.181 246.258 -96.8033 296.199C-86.4125 346.204 -56.9879 403.964 -19.6802 458.978C17.5728 513.911 62.3849 565.665 103.082 603.631C105.135 605.546 107.177 607.424 109.206 609.266L104.343 619.694C101.444 617.092 98.52 614.418 95.5796 611.675C54.2622 573.131 8.91733 520.745 -28.7837 465.151C-66.43 409.639 -96.7573 350.486 -107.573 298.438C-118.401 246.326 -109.834 199.835 -67.4868 172.528ZM436.331 69.2999C475.189 66.3062 513.305 73.853 544.896 99.8654C582.683 130.98 591.691 182.528 582.16 241.961C572.605 301.541 544.258 370.509 505.229 438.651C474.252 492.735 436.43 546.499 395.635 594.894L395.472 577.898C432.689 532.627 467.135 483.03 495.684 433.185C534.362 365.656 562.034 297.99 571.298 240.219C580.586 182.302 571.211 135.782 537.904 108.357C509.097 84.6371 474.066 77.4246 437.175 80.2667C421.857 81.4469 406.275 84.36 390.781 88.5177L390.671 77.17C405.847 73.2409 421.17 70.4679 436.331 69.2999ZM-27.6617 211.759C21.0258 180.695 78.7254 201.892 122.479 228.794C144.609 242.401 163.787 257.828 177.412 269.827C184.232 275.833 189.68 280.997 193.431 284.668C194.146 285.368 194.799 286.014 195.389 286.602C196.083 285.945 196.863 285.213 197.725 284.411C201.769 280.65 207.621 275.359 214.879 269.21C229.38 256.926 249.574 241.154 272.25 227.322C278.831 223.308 285.649 219.442 292.621 215.863L284.784 232.673C282.497 233.994 280.227 235.343 277.979 236.714C255.948 250.152 236.226 265.543 221.989 277.604C214.879 283.627 209.155 288.803 205.216 292.466C203.247 294.297 201.725 295.75 200.701 296.739C200.189 297.234 199.801 297.613 199.543 297.865C199.415 297.991 199.319 298.087 199.256 298.149C199.225 298.179 199.201 298.203 199.187 298.217C199.18 298.224 199.174 298.23 199.171 298.233C199.17 298.234 199.169 298.234 199.168 298.234C198.117 299.284 196.685 299.865 195.2 299.842C193.715 299.819 192.302 299.196 191.283 298.115L191.28 298.113C191.277 298.111 191.273 298.105 191.267 298.099C191.254 298.085 191.234 298.064 191.206 298.034C191.149 297.975 191.062 297.884 190.945 297.762C190.711 297.518 190.357 297.152 189.888 296.673C188.95 295.715 187.553 294.307 185.737 292.529C182.103 288.974 176.797 283.944 170.141 278.082C156.814 266.346 138.149 251.342 116.718 238.165C73.3506 211.501 21.056 193.724 -21.7447 221.031C-37.1354 230.851 -46.1248 243.958 -50.1841 259.509C-54.2843 275.216 -53.4249 293.727 -48.4429 314.203C-38.464 355.218 -12.3171 402.644 19.9653 447.889C52.1837 493.044 90.1945 535.587 123.429 566.796C124.734 568.021 126.032 569.226 127.32 570.414L122.444 580.871C120.283 578.901 118.1 576.881 115.899 574.815C82.1508 543.123 43.6595 500.037 11.0102 454.277C-21.575 408.608 -48.6625 359.832 -59.1314 316.804C-64.3733 295.259 -65.5407 274.786 -60.8277 256.731C-56.0736 238.519 -45.409 223.082 -27.6617 211.759ZM18.0337 252.279C37.7756 239.556 59.4186 238.352 80.2788 243.346C101.021 248.312 121.253 259.448 138.846 271.825C156.485 284.235 171.759 298.098 182.602 308.828C188.031 314.201 192.368 318.806 195.355 322.077C195.556 322.297 195.75 322.512 195.939 322.72C196.207 322.439 196.486 322.145 196.779 321.842C199.998 318.5 204.656 313.794 210.433 308.309C221.971 297.354 238.051 283.221 256.118 270.637C261.191 267.104 266.447 263.672 271.829 260.459L263.1 279.181C262.868 279.341 262.635 279.502 262.404 279.663C244.945 291.823 229.305 305.559 218.006 316.286C212.365 321.642 207.824 326.231 204.701 329.474C203.139 331.094 201.932 332.378 201.121 333.251C200.715 333.688 200.408 334.022 200.205 334.244C200.103 334.355 200.027 334.439 199.978 334.493C199.954 334.52 199.936 334.539 199.924 334.552C199.919 334.558 199.915 334.563 199.913 334.566L199.911 334.568C198.847 335.748 197.325 336.411 195.737 336.386C194.149 336.361 192.649 335.65 191.624 334.438L191.622 334.436C191.62 334.434 191.616 334.43 191.612 334.424C191.602 334.412 191.586 334.393 191.564 334.367C191.52 334.316 191.451 334.235 191.359 334.128C191.174 333.913 190.894 333.59 190.523 333.166C189.78 332.319 188.673 331.072 187.233 329.495C184.352 326.341 180.144 321.871 174.865 316.647C164.29 306.183 149.493 292.765 132.516 280.821C115.494 268.846 96.567 258.557 77.7173 254.044C58.985 249.559 40.6008 250.821 23.9926 261.526C0.392761 276.736 -5.4733 302.809 1.34909 335.626C8.18484 368.507 27.5933 406.651 52.3364 443.12C77.0247 479.508 106.724 513.79 133.673 538.918C135.637 540.75 137.588 542.527 139.515 544.255L134.663 554.663C131.862 552.197 129.029 549.628 126.171 546.964C98.6022 521.258 68.3704 486.345 43.2339 449.296C18.1521 412.328 -2.15958 372.791 -9.42044 337.865C-16.6945 302.875 -11.0329 271.013 18.0337 252.279ZM409.733 106.689C444.712 102.567 479.158 108.292 507.734 131.573C541.652 159.207 552.205 202.686 546.42 252.857C540.636 303.023 518.469 360.849 485.623 418.928C460.905 462.633 430.009 506.707 395.186 548.02L395.022 531.002C426.011 493.156 453.606 453.193 476.047 413.513C508.494 356.14 529.938 299.763 535.493 251.596C541.046 203.432 530.667 164.445 500.786 140.101C475.162 119.225 443.986 113.729 411.021 117.613C404.423 118.391 397.768 119.544 391.092 121.02L390.985 109.79C397.246 108.471 403.504 107.423 409.733 106.689ZM56.8872 290.159C72.7005 280.073 89.9605 280.859 106.196 286.997C122.295 293.084 137.891 304.579 151.365 316.859C164.897 329.193 176.606 342.614 184.912 352.913C188.594 357.479 191.619 361.449 193.852 364.461C196.274 361.371 199.584 357.245 203.604 352.484C212.441 342.019 224.766 328.402 238.623 315.945C242.52 312.442 246.567 309.003 250.718 305.738L239.216 330.409C228.606 340.587 219.171 351.099 212.008 359.581C207.69 364.695 204.214 369.051 201.823 372.122C200.627 373.657 199.703 374.87 199.082 375.694C198.771 376.106 198.536 376.421 198.38 376.631C198.303 376.736 198.245 376.814 198.207 376.865C198.189 376.89 198.175 376.909 198.166 376.921C198.162 376.927 198.158 376.931 198.157 376.934L198.156 376.936C197.101 378.375 195.414 379.214 193.629 379.186C191.845 379.157 190.184 378.264 189.177 376.79V376.789L189.169 376.777C189.162 376.767 189.149 376.749 189.132 376.725C189.098 376.676 189.046 376.599 188.975 376.497C188.834 376.294 188.619 375.987 188.335 375.585C187.767 374.781 186.919 373.596 185.817 372.096C183.611 369.093 180.389 364.83 176.348 359.818C168.251 349.778 156.931 336.817 143.955 324.989C130.92 313.109 116.527 302.663 102.306 297.286C88.2208 291.961 74.8264 291.765 62.8022 299.434C53.8978 305.113 48.7553 312.631 46.4214 321.569C44.0464 330.665 44.509 341.541 47.4897 353.788C53.4663 378.345 69.1936 406.933 88.7798 434.375C108.302 461.727 131.34 487.502 151.464 506.394C152.808 507.655 154.138 508.882 155.45 510.077L150.588 520.505C148.407 518.557 146.185 516.526 143.935 514.414C123.297 495.04 99.7798 468.721 79.8266 440.765C59.9376 412.898 43.2691 382.961 36.8022 356.39C33.5613 343.073 32.7896 330.234 35.7778 318.79C38.8071 307.189 45.6258 297.342 56.8872 290.159ZM391.375 150.603C416.454 149.804 440.798 155.855 461.564 172.9C490.782 196.881 497.573 236.486 490.311 281.628C483.025 326.914 461.433 379.238 431.776 430.852C420.493 450.487 408 470.09 394.622 489.233L394.438 470.035C404.305 455.318 413.622 440.367 422.239 425.371C451.543 374.371 472.457 323.352 479.451 279.88C486.467 236.265 479.311 201.696 454.584 181.401C436.277 166.376 414.614 160.816 391.481 161.603L391.375 150.603ZM391.839 198.954C400.283 201.714 408.375 206.001 415.917 212.126C440.503 232.093 447.997 263.414 443.871 299.089C439.744 334.757 423.957 375.744 400.665 416.797C398.521 420.577 396.31 424.361 394.037 428.146L393.829 406.488C415.185 367.84 429.206 330.13 432.943 297.824C436.836 264.168 429.523 237.345 408.983 220.664C403.638 216.323 397.939 213.038 391.952 210.684L391.839 198.954Z" fill="#009034"/>
<path d="M379.713 -46.462C480.837 -79.4005 607.232 -94.0414 702.443 -16.5225C759.232 29.7137 775.496 103.161 764.059 188.153C752.619 273.167 713.386 370.832 657.638 467.396C546.204 660.42 367.656 850.935 208.784 928.937C208.03 929.308 207.2 929.5 206.36 929.5C183.246 929.5 153.242 917.138 119.615 896.284C87.1102 876.126 50.4778 847.555 12.2146 812.872L17.0827 802.431C55.9467 837.866 92.9375 866.797 125.412 886.936C158.034 907.167 185.339 918.039 205.109 918.483C361.071 841.403 537.606 653.313 648.112 461.897C703.473 366.003 741.981 269.744 753.158 186.685C764.338 103.605 748.095 34.8309 695.499 -7.99223C604.856 -81.7918 483.391 -68.6638 383.12 -36.003C348.22 -24.6351 316.11 -10.9684 289.094 2.00874L264.106 2.13472C294.986 -13.7003 335.066 -31.9194 379.713 -46.462ZM362.39 -17.0957C455.214 -51.1592 571.899 -68.33 661.241 4.04878C714.28 47.0174 733.4 112.109 727.311 187.571C721.229 262.948 690 349.319 641.535 436.297C544.604 610.252 377.842 788.2 200.913 887.635C200.09 888.097 199.162 888.34 198.218 888.34C189.468 888.34 179.03 885.272 167.511 880.031C155.897 874.747 142.734 867.042 128.403 857.291C99.735 837.784 65.9916 809.806 30.0085 775.765C29.8943 775.657 29.7809 775.548 29.6667 775.439L34.5681 764.927C35.5699 765.881 36.5699 766.83 37.5681 767.774C73.2922 801.571 106.569 829.129 134.592 848.197C148.606 857.733 161.207 865.077 172.067 870.018C182.257 874.655 190.539 876.998 196.832 877.304C371.301 778.836 536.102 602.91 631.926 430.942C679.957 344.744 710.436 259.932 716.346 186.686C722.249 113.527 703.645 52.5583 654.317 12.5957C569.729 -55.9319 458.144 -40.5177 366.179 -6.76958C358.74 -4.03943 351.441 -1.19344 344.309 1.7314L316.281 1.87202C330.82 -4.73917 346.275 -11.1817 362.39 -17.0957ZM386.908 9.2021C465.355 -15.1917 554.93 -21.4918 623.514 34.9453C670.873 73.916 683.675 137.225 673.365 210.529C663.043 283.92 629.446 368.599 582.215 452.315C487.829 619.611 337.869 784.983 206.252 850.295C205.492 850.672 204.655 850.868 203.807 850.868C184.362 850.868 159.184 840.067 131.115 822.109C103.981 804.749 73.3611 780.179 41.3435 750.393L46.2321 739.908C78.8947 770.512 109.913 795.486 137.044 812.844C164.122 830.168 186.537 839.382 202.545 839.848C331.159 775.48 479.113 612.671 572.634 446.91C619.499 363.844 652.414 280.518 662.472 208.997C672.543 137.39 659.594 78.8799 616.525 43.4394C549.504 -11.7111 459.982 -3.70017 380.568 22.7998L386.908 9.2021ZM372.645 39.7939C439.275 15.803 514.48 9.37513 575.433 58.9345C619.618 94.8594 635.808 150.179 631.313 214.361C626.822 278.495 601.68 352.198 562.291 426.358C483.522 574.661 346.939 726.341 200.392 808.999C199.568 809.464 198.637 809.708 197.69 809.708C190.238 809.708 181.42 807.057 171.797 802.628C162.072 798.152 151.058 791.639 139.078 783.417C115.336 767.123 87.4027 743.838 57.5886 715.55L62.4929 705.03C63.1035 705.614 63.712 706.196 64.321 706.775C94.1981 735.184 121.975 758.338 145.302 774.348C156.97 782.355 167.424 788.505 176.396 792.635C184.682 796.448 191.329 798.361 196.314 798.664C340.25 717.029 474.867 567.504 552.576 421.198C591.545 347.829 615.993 275.658 620.34 213.593C624.683 151.576 608.96 100.371 568.494 67.4697C508.84 18.9671 433.558 27.5002 366.004 54.04L372.645 39.7939ZM-292.594 -30.6104C-179.612 -102.878 -54.345 -85.0133 41.8689 -49.7051C85.5039 -33.6921 123.373 -14.0219 151.743 2.69917L129.765 2.80952C104.273 -11.3096 73.041 -26.5477 38.0788 -39.378C-56.7065 -74.1619 -177.882 -90.9269 -286.666 -21.3448C-364.414 28.3855 -384.229 110.726 -366.449 208.174C-348.638 305.788 -293.186 417.376 -222.031 523.01C-155.348 622.002 -75.1472 715.362 0.00656128 786.559L0.152069 801.789C-77.8055 729.167 -161.748 632.19 -231.154 529.155C-302.671 422.985 -359.065 309.922 -377.27 210.148C-395.505 110.208 -375.501 22.4205 -292.594 -30.6104ZM436.331 69.2998C475.189 66.3061 513.305 73.8529 544.896 99.8652C582.683 130.98 591.691 182.527 582.16 241.961C572.605 301.541 544.258 370.508 505.229 438.651C466.166 506.854 416.218 574.549 363.149 631.607C310.131 688.611 253.737 735.28 201.709 761.114C200.949 761.492 200.111 761.688 199.262 761.688C183.595 761.688 163.281 752.809 140.754 738.338C120.039 725.031 96.7142 706.503 72.2321 684.142L77.1071 673.685C102.227 696.828 125.954 715.757 146.699 729.083C168.257 742.931 185.786 750.192 198.009 750.663C248.067 725.524 302.959 680.171 355.094 624.116C407.594 567.67 457.041 500.654 495.684 433.185C534.362 365.655 562.034 297.99 571.299 240.219C580.586 182.302 571.211 135.782 537.904 108.356C509.098 84.637 474.066 77.4244 437.176 80.2666C405.554 82.7028 372.811 92.5224 342.04 105.437L348.86 90.8115C377.13 79.8105 407.034 71.5569 436.331 69.2998ZM-258.257 -4.89262C-152.328 -72.312 -36.0955 -53.261 52.82 -18.0274C69.3956 -11.4591 85.058 -4.31444 99.573 2.96187L74.3454 3.08784C66.1036 -0.662506 57.5653 -4.3149 48.7683 -7.80083C-38.7021 -42.4619 -150.742 -60.2832 -252.351 4.38667C-288.839 27.6098 -311.013 58.2743 -321.869 94.2294C-332.764 130.313 -332.35 172.05 -323.005 217.358C-304.298 308.058 -250.085 411.748 -182.361 509.938C-126.495 590.935 -61.6529 667.877 -0.533478 730.282L-0.382111 746.097C-64.2498 681.861 -132.74 601.254 -191.415 516.184C-259.463 417.524 -314.633 312.402 -333.778 219.58C-343.358 173.128 -343.988 129.426 -332.401 91.0498C-320.775 52.5458 -296.943 19.7293 -258.257 -4.89262ZM409.733 106.688C444.712 102.566 479.158 108.292 507.734 131.573C541.652 159.207 552.206 202.686 546.421 252.856C540.636 303.023 518.469 360.849 485.623 418.928C419.941 535.067 310.627 653.827 199.938 716.387C199.113 716.853 198.179 717.098 197.231 717.098C191.296 717.097 184.334 714.92 176.868 711.434C169.288 707.894 160.681 702.76 151.311 696.309C133.496 684.042 112.552 666.751 90.0954 645.827L94.9861 635.339C118.197 657.144 139.645 674.92 157.55 687.248C166.62 693.494 174.679 698.271 181.522 701.467C187.642 704.325 192.417 705.737 195.884 706.036C304.042 644.441 411.414 527.799 476.048 413.513C508.494 356.14 529.939 299.763 535.493 251.596C541.047 203.432 530.667 164.445 500.786 140.101C475.162 119.225 443.986 113.729 411.021 117.613C381.911 121.044 351.704 131.772 323.425 145.367L330.623 129.926C356.15 118.62 383.204 109.815 409.733 106.688ZM-218.815 27.7138C-143.217 -21.1578 -59.5083 -17.7187 13.0173 3.39644L-7.50027 3.49995L-7.44461 9.30659C-73.6703 -6.77692 -146.724 -5.79243 -212.842 36.9511C-276.615 78.1789 -292.471 147.675 -276.899 230.8C-261.307 314.027 -214.325 409.575 -154.325 500.209C-107.873 570.379 -53.7951 637.334 -0.8909 693.008L-0.736603 709.061C-56.6651 651.286 -114.321 580.568 -163.498 506.281C-223.846 415.121 -271.728 318.142 -287.711 232.826C-303.713 147.409 -287.853 72.3455 -218.815 27.7138ZM378.18 151.625C407.84 148.024 437.171 152.878 461.564 172.899C490.782 196.881 497.574 236.486 490.311 281.628C483.026 326.913 461.433 379.237 431.776 430.852C372.549 533.928 279.99 636.134 200.91 675.275C200.151 675.651 199.316 675.847 198.469 675.847C186.177 675.846 170.486 668.94 153.365 657.977C138.047 648.168 120.886 634.647 102.889 618.386L107.757 607.945C126.378 624.964 143.937 638.878 159.297 648.713C175.434 659.046 188.358 664.354 197.242 664.81C273.319 626.578 363.853 526.984 422.239 425.371C451.543 374.371 472.457 323.352 479.451 279.88C486.467 236.265 479.311 201.696 454.585 181.401C433.15 163.809 407.115 159.192 379.507 162.545C354.358 165.599 328.213 175.244 303.835 187.384L311.125 171.747C332.718 161.99 355.651 154.361 378.18 151.625ZM-187.895 58.5673C-128.908 20.8887 -65.3629 18.5912 -7.22781 31.9228L-7.11942 43.2334C-63.9087 29.7121 -125.342 31.663 -181.974 67.8369C-211.937 86.9763 -230.014 112.348 -238.728 142.186C-247.48 172.157 -246.869 206.95 -238.807 244.847C-222.667 320.716 -176.964 407.674 -120.036 490.143C-83.3341 543.312 -42.0964 594.425 -1.40555 639.262L-1.24832 655.726C-44.9316 608.411 -89.6073 553.587 -129.089 496.392C-186.334 413.463 -232.981 325.095 -249.566 247.136C-257.866 208.118 -258.71 171.369 -249.287 139.102C-239.825 106.701 -220.095 79.1355 -187.895 58.5673ZM345.18 196.895C370.185 192.314 395.136 195.249 415.918 212.126C440.504 232.093 447.998 263.413 443.871 299.089C439.745 334.757 423.958 375.743 400.666 416.797C354.092 498.886 276.579 582.855 197.984 627.134C197.16 627.598 196.23 627.842 195.284 627.842C190.738 627.842 185.561 626.191 180.206 623.698C174.737 621.152 168.569 617.481 161.897 612.902C149.9 604.668 135.943 593.267 120.997 579.547L125.878 569.079C141.559 583.645 156.013 595.522 168.122 603.833C174.494 608.206 180.115 611.522 184.847 613.726C188.816 615.573 191.841 616.482 193.988 616.752C270.039 573.428 345.586 491.587 391.098 411.368C413.989 371.021 429.049 331.487 432.943 297.824C436.836 264.168 429.523 237.345 408.983 220.664C391.428 206.408 370.065 203.519 347.163 207.715C325.524 211.68 302.932 221.919 281.947 234.33L289.897 217.279C307.693 207.901 326.58 200.303 345.18 196.895ZM-150.306 99.4931C-105.124 70.2656 -54.7658 66.557 -6.81277 75.3046L-6.70535 86.5058C-53.2865 77.6404 -101.521 81.0352 -144.331 108.728C-193.812 140.737 -205.345 195.488 -191.594 261.875C-177.831 328.32 -138.907 404.913 -89.6839 477.729C-62.5819 517.822 -32.4478 556.635 -1.86063 591.821L-1.69949 608.669C-35.4729 570.647 -68.9547 528.035 -98.7962 483.89C-148.357 410.573 -188.18 332.589 -202.366 264.105C-216.563 195.563 -205.243 135.031 -150.306 99.4931ZM314.435 242.028C334.554 237.174 354.907 238.725 371.882 252.65C392.058 269.203 396.512 296.362 391.643 326.613C386.751 357.007 372.284 391.993 352.51 426.39C313.051 495.032 251.292 563.292 198.262 589.526C197.504 589.901 196.67 590.097 195.824 590.097C187.085 590.097 176.266 585.241 164.847 577.933C155.171 571.74 144.438 563.365 133.203 553.367L138.061 542.946C149.905 553.671 161.035 562.433 170.777 568.668C181.171 575.32 189.244 578.607 194.628 579.044C244.652 553.705 304.366 488.068 342.974 420.907C362.395 387.124 376.183 353.444 380.783 324.865C385.406 296.143 380.588 274.02 364.905 261.154C351.416 250.088 334.966 248.391 317.016 252.722C298.942 257.083 279.926 267.459 262.404 279.663C261.61 280.216 260.82 280.774 260.033 281.333L268.949 262.209C283.504 253.241 299.065 245.737 314.435 242.028ZM-116.749 131.204C-81.945 108.927 -43.7646 104.31 -6.48465 109.499L-6.3782 120.624C-42.162 115.369 -78.2752 119.638 -110.82 140.469C-133.066 154.708 -146.126 173.784 -152.011 196.4C-157.937 219.173 -156.656 245.84 -149.558 275.107C-135.347 333.703 -98.1842 401.25 -52.4807 465.511C-36.5872 487.857 -19.6977 509.752 -2.44656 530.675L-2.28055 548.055C-22.6937 523.839 -42.7485 498.174 -61.4446 471.887C-107.451 407.201 -145.55 338.305 -160.248 277.7C-167.605 247.368 -169.191 218.744 -162.657 193.631C-156.081 168.361 -141.354 146.952 -116.749 131.204ZM283.562 286.01C299.18 279.988 315.582 279.356 329.342 290.526C345.095 303.316 349.692 323.251 347.134 345.351C344.578 367.442 334.828 392.662 320.575 417.775C292.079 467.984 244.651 519.382 196.418 546.548C195.594 547.012 194.664 547.256 193.718 547.256C190.484 547.256 186.993 546.097 183.634 544.534C180.162 542.918 176.302 540.616 172.183 537.79C165.338 533.093 157.498 526.755 149.133 519.199L154.004 508.752C163.087 517.12 171.422 523.927 178.407 528.72C182.226 531.34 185.539 533.288 188.275 534.561C190.152 535.435 191.553 535.891 192.531 536.102C238.187 509.876 283.597 460.644 311.009 412.346C324.86 387.939 333.883 364.173 336.208 344.087C338.531 324.008 334.115 308.571 322.408 299.066C312.837 291.297 301.055 291.054 287.519 296.273C273.87 301.536 259.4 312.059 245.976 324.126C242.346 327.389 238.818 330.742 235.431 334.101L247.419 308.389C258.89 299 271.272 290.748 283.562 286.01ZM-5.96512 163.644C-25.1807 164.947 -43.9911 170.466 -61.5257 181.772C-98.4074 205.555 -107.181 246.258 -96.803 296.199C-86.4123 346.204 -56.9876 403.964 -19.68 458.977C-14.2381 467.002 -8.63361 474.958 -2.90555 482.813L-2.72684 501.512C-11.7026 489.626 -20.4311 477.468 -28.7835 465.151C-66.4297 409.638 -96.7571 350.486 -107.573 298.437C-118.401 246.326 -109.834 199.835 -67.4866 172.528C-47.9287 159.917 -27.1032 153.929 -6.07156 152.609L-5.96512 163.644ZM-5.49344 212.911C-11.0319 214.976 -16.4607 217.66 -21.7444 221.031C-37.1352 230.851 -46.1246 243.958 -50.1839 259.509C-54.2841 275.216 -53.4246 293.726 -48.4427 314.203C-41.0332 344.657 -24.7085 378.645 -3.5784 412.65L-3.38016 433.339C-29.3993 393.961 -50.2481 353.314 -59.1311 316.804C-64.373 295.259 -65.5404 274.786 -60.8274 256.73C-56.0734 238.518 -45.4088 223.082 -27.6614 211.759C-20.4808 207.177 -13.1038 203.733 -5.60477 201.275L-5.49344 212.911ZM-4.10574 357.666C-6.2883 350.938 -8.07767 344.323 -9.4202 337.865C-14.0526 315.583 -13.439 294.568 -4.87527 277.405L-4.10574 357.666Z" fill="#FF914D"/>
</svg>
