<svg width="390" height="844" viewBox="0 0 390 844" fill="none" xmlns="http://www.w3.org/2000/svg">
<path d="M-292.594 -30.6104C-179.612 -102.878 -54.345 -85.0133 41.8689 -49.7051C90.0431 -32.0263 131.189 -9.88985 160.284 7.81441C174.838 16.6707 186.394 24.429 194.325 29.9834C198.29 32.7605 201.351 34.9873 203.427 36.5263C203.448 36.5412 203.468 36.5565 203.488 36.5712C203.595 36.5027 203.705 36.432 203.817 36.3603C206.165 34.861 209.621 32.6906 214.077 29.9873C222.988 24.5808 235.908 17.0391 251.986 8.47066C284.127 -8.65793 328.971 -29.9343 379.713 -46.462C480.837 -79.4005 607.232 -94.0414 702.443 -16.5225C759.232 29.7137 775.496 103.161 764.059 188.153C752.619 273.167 713.386 370.832 657.638 467.396C546.204 660.42 367.656 850.935 208.784 928.937C208.03 929.308 207.2 929.5 206.36 929.5C183.246 929.5 153.242 917.138 119.615 896.284C85.7606 875.289 47.4265 845.17 7.4382 808.522C-72.5482 735.219 -159.58 635.409 -231.154 529.155C-302.671 422.985 -359.065 309.922 -377.27 210.148C-395.505 110.208 -375.501 22.4205 -292.594 -30.6104ZM38.0788 -39.378C-56.7065 -74.1619 -177.882 -90.9269 -286.666 -21.3448C-364.414 28.3855 -384.229 110.726 -366.449 208.174C-348.638 305.788 -293.186 417.376 -222.031 523.01C-150.931 628.56 -64.4621 727.709 14.8708 800.413C54.5419 836.769 92.3226 866.416 125.412 886.936C158.034 907.167 185.339 918.039 205.109 918.483C361.071 841.403 537.606 653.313 648.112 461.897C703.473 366.003 741.981 269.744 753.158 186.685C764.338 103.605 748.095 34.8309 695.499 -7.99223C604.856 -81.7918 483.391 -68.6638 383.12 -36.003C333.164 -19.731 288.925 1.2501 257.159 18.1787C241.284 26.6386 228.543 34.0766 219.783 39.3916C215.403 42.0487 212.019 44.1749 209.737 45.6318C208.597 46.36 207.731 46.9213 207.155 47.2978C206.867 47.4859 206.651 47.6278 206.509 47.7216C206.438 47.7684 206.385 47.8037 206.351 47.8261C206.335 47.8373 206.322 47.8455 206.314 47.8505C206.311 47.8529 206.308 47.8542 206.306 47.8554L203.253 43.2822L206.306 47.8564C204.335 49.172 201.742 49.0769 199.873 47.621C199.871 47.62 199.869 47.6192 199.867 47.6171C199.861 47.6123 199.85 47.6038 199.836 47.5927C199.807 47.5704 199.762 47.5352 199.701 47.4882C199.578 47.3938 199.39 47.2503 199.139 47.0595C198.637 46.6776 197.88 46.1062 196.879 45.3642C194.876 43.8801 191.895 41.7109 188.014 38.9931C180.252 33.5566 168.894 25.9297 154.566 17.2109C125.896 -0.234955 85.4039 -22.0108 38.0788 -39.378ZM-258.257 -4.89262C-152.328 -72.312 -36.0955 -53.261 52.82 -18.0274C97.3446 -0.384048 135.283 21.4101 162.08 38.7793C175.485 47.4683 186.121 55.0621 193.418 60.4941C196.846 63.0462 199.538 65.1223 201.436 66.6113C203.578 65.1173 206.688 62.9812 210.677 60.331C218.819 54.9221 230.626 47.3669 245.333 38.749C274.73 21.5224 315.796 0.00289917 362.39 -17.0957C455.214 -51.1592 571.899 -68.33 661.241 4.04878C714.28 47.0174 733.4 112.109 727.311 187.571C721.229 262.948 690 349.319 641.535 436.297C544.604 610.252 377.842 788.2 200.913 887.635C200.09 888.097 199.162 888.34 198.218 888.34C189.468 888.34 179.03 885.272 167.511 880.031C155.897 874.747 142.734 867.042 128.403 857.291C99.735 837.784 65.9916 809.806 30.0085 775.765C-41.9704 707.67 -123.305 614.934 -191.415 516.184C-259.463 417.524 -314.633 312.402 -333.778 219.58C-343.358 173.128 -343.988 129.426 -332.401 91.0498C-320.775 52.5458 -296.943 19.7293 -258.257 -4.89262ZM48.7683 -7.80083C-38.7021 -42.4619 -150.742 -60.2832 -252.351 4.38667C-288.839 27.6098 -311.013 58.2743 -321.869 94.2294C-332.764 130.313 -332.35 172.05 -323.005 217.358C-304.298 308.058 -250.085 411.748 -182.361 509.938C-114.698 608.039 -33.8682 700.193 37.5681 767.774C73.2922 801.571 106.569 829.129 134.592 848.197C148.606 857.733 161.207 865.077 172.067 870.018C182.257 874.655 190.539 876.998 196.832 877.304C371.301 778.836 536.102 602.91 631.926 430.942C679.957 344.744 710.436 259.932 716.346 186.686C722.249 113.527 703.645 52.5583 654.317 12.5957C569.729 -55.9319 458.144 -40.5177 366.179 -6.76958C320.38 10.0375 279.921 31.2298 250.894 48.2392C236.389 56.7391 224.758 64.1827 216.764 69.4931C212.768 72.148 209.682 74.2695 207.602 75.7216C206.563 76.4475 205.774 77.0062 205.25 77.3808C204.988 77.568 204.791 77.7095 204.662 77.8027C204.598 77.849 204.55 77.884 204.519 77.9062C204.504 77.9171 204.493 77.9257 204.486 77.9306C204.483 77.9328 204.481 77.9344 204.479 77.9355L201.238 73.4921L204.478 77.9365C202.447 79.4171 199.67 79.3327 197.733 77.7314V77.7304C197.732 77.7295 197.73 77.7283 197.728 77.7265C197.723 77.7219 197.713 77.7147 197.7 77.7041C197.674 77.6825 197.633 77.6482 197.577 77.6025C197.465 77.5108 197.292 77.3713 197.062 77.1855C196.602 76.8138 195.908 76.2574 194.989 75.5341C193.151 74.0875 190.413 71.9712 186.848 69.3173C179.717 64.0087 169.278 56.5535 156.096 48.0097C129.72 30.9128 92.4363 9.50312 48.7683 -7.80083ZM-218.815 27.7138C-124.866 -33.0214 -18.3901 -12.9656 63.5808 21.4033C104.667 38.63 139.926 59.5785 164.9 76.2041C177.394 84.5215 187.333 91.7696 194.16 96.9482C197.227 99.2746 199.666 101.186 201.428 102.588C203.425 101.17 206.253 99.1887 209.838 96.7519C217.457 91.5718 228.498 84.3262 242.221 76.0341C269.653 59.4597 307.886 38.6552 351.011 21.8154C436.798 -11.6828 544.194 -30.3258 623.514 34.9453C670.873 73.916 683.675 137.225 673.365 210.529C663.043 283.92 629.446 368.599 582.215 452.315C487.829 619.611 337.869 784.983 206.252 850.295C205.492 850.672 204.655 850.868 203.807 850.868C184.362 850.868 159.184 840.067 131.115 822.109C102.802 803.995 70.6933 778.033 37.1628 746.485C-29.9095 683.379 -103.097 597.521 -163.498 506.281C-223.846 415.121 -271.728 318.142 -287.711 232.826C-303.713 147.409 -287.853 72.3455 -218.815 27.7138ZM59.3269 31.5478C-21.402 -2.30033 -123.459 -20.8323 -212.842 36.9511C-276.615 78.1789 -292.471 147.675 -276.899 230.8C-261.307 314.027 -214.325 409.575 -154.325 500.209C-94.3787 590.763 -21.7351 675.966 44.7009 738.474C77.9244 769.732 109.489 795.215 137.044 812.844C164.122 830.168 186.537 839.382 202.545 839.848C331.159 775.48 479.113 612.671 572.634 446.91C619.499 363.844 652.414 280.518 662.472 208.997C672.543 137.39 659.594 78.8799 616.525 43.4394C542.202 -17.7197 440.207 -1.20536 355.013 32.0615C312.649 48.6041 274.994 69.0839 247.911 85.4482C234.377 93.6254 223.502 100.763 216.022 105.849C212.283 108.391 209.393 110.42 207.444 111.809C206.47 112.503 205.731 113.037 205.239 113.394C204.993 113.573 204.808 113.708 204.687 113.797C204.627 113.841 204.582 113.874 204.553 113.895C204.539 113.906 204.529 113.914 204.522 113.919L204.515 113.924C202.537 115.392 199.832 115.361 197.892 113.873L197.707 113.725C197.705 113.723 197.704 113.722 197.702 113.72C197.697 113.715 197.688 113.708 197.676 113.698C197.651 113.678 197.612 113.646 197.559 113.602C197.454 113.515 197.293 113.382 197.077 113.205C196.645 112.852 195.994 112.323 195.134 111.635C193.411 110.258 190.848 108.242 187.512 105.712C180.841 100.652 171.087 93.537 158.804 85.3603C134.224 68.9971 99.5904 48.4296 59.3269 31.5478ZM329.405 58.1337C404.857 21.4946 500.822 -1.72951 575.433 58.9345C619.618 94.8594 635.808 150.179 631.313 214.361C626.822 278.495 601.68 352.198 562.291 426.358C483.522 574.661 346.939 726.341 200.392 808.999C199.568 809.464 198.637 809.708 197.69 809.708C190.238 809.708 181.42 807.057 171.797 802.628C162.072 798.152 151.058 791.639 139.078 783.417C115.111 766.969 86.8734 743.398 56.7419 714.747C-3.53445 657.432 -71.782 579.41 -129.089 496.392C-186.334 413.463 -232.981 325.095 -249.566 247.136C-257.866 208.118 -258.71 171.369 -249.287 139.102C-239.825 106.701 -220.095 79.1355 -187.895 58.5673C-99.6703 2.21319 -1.25046 25.0028 74.0163 60.8603C111.758 78.8405 144.033 100.26 166.858 117.165C178.278 125.623 187.351 132.965 193.581 138.203C196.027 140.26 198.035 141.993 199.576 143.343C201.239 141.925 203.44 140.074 206.136 137.861C212.735 132.446 222.308 124.854 234.241 116.118C258.089 98.659 291.45 76.5646 329.405 58.1337ZM568.494 67.4697C499.278 11.1926 409.022 31.7007 334.21 68.0293C297.033 86.0823 264.25 107.781 240.739 124.994C228.992 133.594 219.58 141.058 213.115 146.364C209.883 149.017 207.388 151.129 205.708 152.572C204.868 153.294 204.232 153.849 203.808 154.22C203.597 154.405 203.439 154.545 203.335 154.637C203.283 154.683 203.244 154.717 203.219 154.739C203.207 154.75 203.198 154.758 203.193 154.763C203.191 154.765 203.189 154.766 203.188 154.768L199.522 150.667L203.187 154.768C201.138 156.599 198.066 156.63 195.983 154.878L195.785 154.703C195.784 154.702 195.782 154.701 195.78 154.699C195.775 154.695 195.768 154.687 195.757 154.677C195.734 154.656 195.7 154.624 195.652 154.58C195.557 154.493 195.41 154.359 195.214 154.182C194.821 153.826 194.228 153.293 193.444 152.6C191.876 151.212 189.541 149.178 186.502 146.622C180.421 141.51 171.526 134.311 160.311 126.005C137.866 109.381 106.206 88.3799 69.2859 70.791C-4.77039 35.5102 -98.579 14.5676 -181.974 67.8369C-211.937 86.9763 -230.014 112.348 -238.728 142.186C-247.48 172.157 -246.869 206.95 -238.807 244.847C-222.667 320.716 -176.964 407.674 -120.036 490.143C-63.1707 572.521 4.57947 649.969 64.321 706.775C94.1981 735.184 121.975 758.338 145.302 774.348C156.97 782.355 167.424 788.505 176.396 792.635C184.682 796.448 191.329 798.361 196.314 798.664C340.25 717.029 474.867 567.504 552.576 421.198C591.545 347.829 615.993 275.658 620.34 213.593C624.683 151.576 608.96 100.371 568.494 67.4697ZM436.331 69.2998C475.189 66.3061 513.305 73.8529 544.896 99.8652C582.683 130.98 591.691 182.527 582.16 241.961C572.605 301.541 544.258 370.508 505.229 438.651C466.166 506.854 416.218 574.549 363.149 631.607C310.131 688.611 253.737 735.28 201.709 761.114C200.949 761.492 200.111 761.688 199.262 761.688C183.595 761.688 163.281 752.809 140.754 738.338C117.966 723.7 92.0183 702.743 64.8474 677.314C10.4935 626.447 -49.1813 557.286 -98.7962 483.89C-148.357 410.573 -188.18 332.589 -202.366 264.105C-216.563 195.563 -205.243 135.031 -150.306 99.4931C-75.7357 51.2546 12.9354 72.5249 81.6208 104.591C116.132 120.703 146.047 139.737 167.317 154.726C177.96 162.225 186.456 168.725 192.303 173.358C194.587 175.168 196.467 176.694 197.914 177.884C199.534 176.628 201.684 174.982 204.319 173.01C210.709 168.227 219.959 161.518 231.431 153.785C254.36 138.33 286.25 118.731 322.002 102.245C357.709 85.7797 397.553 72.2873 436.331 69.2998ZM537.904 108.356C509.098 84.637 474.066 77.4244 437.176 80.2666C400.205 83.1149 361.7 96.0528 326.608 112.234C291.561 128.396 260.199 147.66 237.579 162.907C226.277 170.525 217.176 177.126 210.91 181.816C207.777 184.161 205.355 186.028 203.72 187.303C202.904 187.94 202.283 188.43 201.871 188.758C201.665 188.922 201.51 189.046 201.409 189.127C201.358 189.167 201.321 189.197 201.297 189.217C201.285 189.226 201.276 189.234 201.271 189.238L201.265 189.242C199.194 190.918 196.218 190.87 194.204 189.125V189.124C194.203 189.123 194.202 189.123 194.2 189.121C194.195 189.117 194.188 189.111 194.177 189.102C194.157 189.083 194.124 189.055 194.079 189.017C193.989 188.939 193.85 188.821 193.665 188.664C193.294 188.35 192.736 187.879 191.998 187.266C190.521 186.039 188.325 184.241 185.471 181.979C179.764 177.456 171.433 171.083 160.981 163.718C140.062 148.977 110.72 130.315 76.9675 114.558C9.12527 82.8854 -74.7652 63.7272 -144.331 108.728C-193.812 140.737 -205.345 195.488 -191.594 261.875C-177.831 328.32 -138.907 404.913 -89.6839 477.729C-40.5153 550.466 18.6288 618.995 72.364 669.283C99.2375 694.433 124.653 714.921 146.699 729.083C168.257 742.931 185.786 750.192 198.009 750.663C248.067 725.524 302.959 680.171 355.094 624.116C407.594 567.67 457.041 500.654 495.684 433.185C534.362 365.655 562.034 297.99 571.299 240.219C580.586 182.302 571.211 135.782 537.904 108.356ZM409.733 106.688C444.712 102.566 479.158 108.292 507.734 131.573C541.652 159.207 552.206 202.686 546.421 252.856C540.636 303.023 518.469 360.849 485.623 418.928C419.941 535.067 310.627 653.827 199.938 716.387C199.113 716.853 198.179 717.098 197.231 717.098C191.296 717.097 184.334 714.92 176.868 711.434C169.288 707.894 160.681 702.76 151.311 696.309C132.562 683.399 110.346 664.924 86.5495 642.507C38.9433 597.659 -15.375 536.662 -61.4446 471.887C-107.451 407.201 -145.55 338.305 -160.248 277.7C-167.605 247.368 -169.191 218.744 -162.657 193.631C-156.081 168.361 -141.354 146.952 -116.749 131.204C-49.4117 88.1042 30.5627 111.105 92.2058 143.348C123.225 159.572 150.109 178.389 169.219 193.128C178.782 200.503 186.418 206.872 191.673 211.405C193.466 212.952 194.981 214.288 196.203 215.376C197.583 214.219 199.329 212.772 201.413 211.076C207.145 206.411 215.443 199.858 225.735 192.277C246.303 177.127 274.916 157.814 307.003 141.261C339.041 124.733 374.842 110.8 409.733 106.688ZM500.786 140.101C475.162 119.225 443.986 113.729 411.021 117.613C377.968 121.508 343.5 134.811 312.046 151.037C280.64 167.238 252.535 186.198 232.259 201.134C222.129 208.595 213.972 215.038 208.356 219.608C205.549 221.893 203.377 223.708 201.913 224.948C201.181 225.568 200.626 226.045 200.257 226.363C200.072 226.522 199.934 226.642 199.843 226.721C199.798 226.76 199.764 226.789 199.743 226.808C199.732 226.817 199.724 226.824 199.719 226.828C199.718 226.83 199.717 226.831 199.716 226.832L196.089 222.697L199.715 226.832C197.585 228.699 194.386 228.644 192.322 226.705V226.704C192.321 226.704 192.32 226.703 192.319 226.702C192.315 226.698 192.308 226.692 192.299 226.684C192.28 226.666 192.251 226.638 192.211 226.601C192.13 226.525 192.006 226.41 191.84 226.257C191.508 225.951 191.007 225.492 190.344 224.894C189.019 223.698 187.047 221.943 184.486 219.733C179.363 215.313 171.884 209.074 162.502 201.838C143.722 187.354 117.389 168.933 87.1081 153.095C26.1512 121.211 -48.8118 100.78 -110.82 140.469C-133.066 154.708 -146.126 173.784 -152.011 196.4C-157.937 219.173 -156.656 245.84 -149.558 275.107C-135.347 333.703 -98.1842 401.25 -52.4807 465.511C-6.84067 529.682 46.9989 590.135 94.0925 634.5C117.646 656.689 139.416 674.762 157.55 687.248C166.62 693.494 174.679 698.271 181.522 701.467C187.642 704.325 192.417 705.737 195.884 706.036C304.042 644.441 411.414 527.799 476.048 413.513C508.494 356.14 529.939 299.763 535.493 251.596C541.047 203.432 530.667 164.445 500.786 140.101ZM378.18 151.625C407.84 148.024 437.171 152.878 461.564 172.899C490.782 196.881 497.574 236.486 490.311 281.628C483.026 326.913 461.433 379.237 431.776 430.852C372.549 533.928 279.99 636.134 200.91 675.275C200.151 675.651 199.316 675.847 198.469 675.847C186.177 675.846 170.486 668.94 153.365 657.977C135.985 646.848 116.232 630.941 95.5798 611.675C54.2625 573.131 8.91757 520.745 -28.7835 465.151C-66.4297 409.638 -96.7571 350.486 -107.573 298.437C-118.401 246.326 -109.834 199.835 -67.4866 172.528C-10.1161 135.535 58.1596 155.527 110.562 183.191C136.967 197.131 159.86 213.279 176.134 225.919C184.278 232.245 190.783 237.708 195.262 241.598C196.528 242.696 197.631 243.67 198.565 244.503C199.621 243.606 200.889 242.537 202.356 241.321C207.186 237.32 214.175 231.701 222.844 225.2C240.167 212.211 264.279 195.641 291.343 181.422C318.358 167.229 348.617 155.215 378.18 151.625ZM454.585 181.401C433.15 163.809 407.115 159.192 379.507 162.545C351.802 165.909 322.888 177.273 296.459 191.159C270.079 205.019 246.475 221.229 229.443 234.001C220.935 240.38 214.087 245.887 209.374 249.792C207.018 251.744 205.196 253.295 203.969 254.352C203.356 254.881 202.891 255.287 202.583 255.558C202.429 255.693 202.313 255.795 202.238 255.861C202.2 255.895 202.173 255.92 202.155 255.935C202.146 255.943 202.14 255.949 202.136 255.952L202.133 255.955C200.001 257.857 196.768 257.812 194.692 255.85L194.689 255.847C194.686 255.844 194.68 255.838 194.673 255.831C194.657 255.816 194.632 255.793 194.598 255.762C194.531 255.698 194.426 255.601 194.286 255.471C194.005 255.21 193.581 254.82 193.019 254.31C191.896 253.289 190.223 251.79 188.05 249.902C183.701 246.126 177.351 240.793 169.385 234.606C153.44 222.221 131.095 206.471 105.426 192.92C53.6829 165.603 -9.52945 148.244 -61.5257 181.772C-98.4074 205.555 -107.181 246.258 -96.803 296.199C-86.4123 346.204 -56.9876 403.964 -19.68 458.977C17.5731 513.911 62.3851 565.665 103.083 603.631C123.437 622.619 142.658 638.059 159.297 648.713C175.434 659.046 188.358 664.354 197.242 664.81C273.319 626.578 363.853 526.984 422.239 425.371C451.543 374.371 472.457 323.352 479.451 279.88C486.467 236.265 479.311 201.696 454.585 181.401ZM345.18 196.895C370.185 192.314 395.136 195.249 415.918 212.126C440.504 232.093 447.998 263.413 443.871 299.089C439.745 334.757 423.958 375.743 400.666 416.797C354.092 498.886 276.579 582.855 197.984 627.134C197.16 627.598 196.23 627.842 195.284 627.842C190.738 627.842 185.561 626.191 180.206 623.698C174.737 621.152 168.569 617.481 161.897 612.902C148.545 603.738 132.767 590.654 115.899 574.814C82.1511 543.123 43.6598 500.037 11.0105 454.277C-21.5747 408.608 -48.6622 359.832 -59.1311 316.804C-64.373 295.259 -65.5404 274.786 -60.8274 256.73C-56.0734 238.518 -45.4088 223.082 -27.6614 211.759C21.0261 180.695 78.7257 201.892 122.479 228.794C144.609 242.4 163.787 257.828 177.412 269.827C184.232 275.833 189.68 280.997 193.431 284.668C194.147 285.368 194.799 286.014 195.389 286.602C196.083 285.945 196.864 285.212 197.725 284.411C201.769 280.65 207.621 275.358 214.88 269.21C229.38 256.926 249.574 241.154 272.251 227.322C294.871 213.525 320.283 201.457 345.18 196.895ZM408.983 220.664C391.428 206.408 370.065 203.519 347.163 207.715C324.154 211.931 300.066 223.241 277.979 236.714C255.948 250.152 236.227 265.543 221.989 277.603C214.879 283.627 209.155 288.803 205.217 292.466C203.248 294.297 201.726 295.75 200.701 296.739C200.189 297.234 199.801 297.612 199.544 297.865C199.415 297.991 199.319 298.086 199.257 298.148C199.225 298.179 199.202 298.202 199.187 298.217C199.18 298.224 199.175 298.229 199.172 298.232C199.171 298.233 199.169 298.234 199.169 298.234C198.117 299.284 196.686 299.864 195.2 299.842C193.715 299.819 192.302 299.196 191.283 298.115L191.28 298.113C191.277 298.111 191.274 298.105 191.267 298.099C191.255 298.085 191.234 298.064 191.206 298.034C191.149 297.975 191.062 297.883 190.945 297.762C190.711 297.518 190.357 297.152 189.888 296.673C188.951 295.715 187.553 294.307 185.737 292.529C182.104 288.973 176.797 283.943 170.141 278.082C156.814 266.345 138.149 251.341 116.718 238.165C73.3508 211.501 21.0562 193.724 -21.7444 221.031C-37.1352 230.851 -46.1246 243.958 -50.1839 259.509C-54.2841 275.216 -53.4246 293.726 -48.4427 314.203C-38.4637 355.218 -12.3169 402.643 19.9655 447.889C52.1839 493.044 90.1948 535.587 123.429 566.796C140.053 582.407 155.386 595.091 168.122 603.833C174.494 608.206 180.115 611.522 184.847 613.726C188.816 615.573 191.841 616.482 193.988 616.752C270.039 573.428 345.586 491.587 391.098 411.368C413.989 371.021 429.049 331.487 432.943 297.824C436.836 264.168 429.523 237.345 408.983 220.664ZM314.435 242.028C334.554 237.174 354.907 238.725 371.882 252.65C392.058 269.203 396.512 296.362 391.643 326.613C386.751 357.007 372.284 391.993 352.51 426.39C313.051 495.032 251.292 563.292 198.262 589.526C197.504 589.901 196.67 590.097 195.824 590.097C187.085 590.097 176.266 585.241 164.847 577.933C153.17 570.459 139.95 559.811 126.172 546.964C98.6024 521.257 68.3707 486.345 43.2341 449.296C18.1523 412.328 -2.15936 372.791 -9.4202 337.865C-16.6943 302.875 -11.0327 271.013 18.0339 252.279C37.7758 239.555 59.4189 238.351 80.279 243.346C101.022 248.312 121.253 259.448 138.846 271.825C156.485 284.234 171.759 298.098 182.602 308.828C188.032 314.201 192.368 318.806 195.355 322.077C195.556 322.297 195.75 322.512 195.939 322.72C196.208 322.439 196.487 322.145 196.779 321.842C199.999 318.5 204.656 313.793 210.433 308.309C221.971 297.354 238.051 283.22 256.118 270.637C274.122 258.097 294.442 246.853 314.435 242.028ZM364.905 261.154C351.416 250.088 334.966 248.391 317.016 252.722C298.942 257.083 279.926 267.459 262.404 279.663C244.945 291.823 229.306 305.558 218.007 316.286C212.365 321.642 207.825 326.231 204.701 329.474C203.139 331.094 201.933 332.378 201.121 333.251C200.715 333.687 200.408 334.022 200.205 334.244C200.103 334.355 200.027 334.439 199.978 334.493C199.954 334.52 199.936 334.539 199.925 334.552C199.919 334.558 199.915 334.563 199.913 334.565L199.911 334.567C198.848 335.748 197.326 336.411 195.737 336.386C194.149 336.361 192.649 335.65 191.624 334.437L191.622 334.435C191.62 334.433 191.617 334.429 191.612 334.424C191.602 334.412 191.586 334.393 191.564 334.367C191.52 334.315 191.451 334.235 191.359 334.128C191.174 333.913 190.894 333.59 190.523 333.166C189.781 332.319 188.673 331.072 187.233 329.495C184.352 326.341 180.144 321.87 174.865 316.646C164.291 306.183 149.493 292.765 132.516 280.821C115.495 268.846 96.5672 258.557 77.7175 254.044C58.9852 249.559 40.601 250.821 23.9929 261.525C0.393005 276.736 -5.47305 302.809 1.34933 335.626C8.18509 368.507 27.5935 406.651 52.3366 443.12C77.025 479.508 106.724 513.789 133.674 538.918C147.154 551.488 159.841 561.668 170.777 568.668C181.171 575.32 189.244 578.607 194.628 579.044C244.652 553.705 304.366 488.068 342.974 420.907C362.395 387.124 376.183 353.444 380.783 324.865C385.406 296.143 380.588 274.02 364.905 261.154ZM283.562 286.01C299.18 279.988 315.582 279.356 329.342 290.526C345.095 303.316 349.692 323.251 347.134 345.351C344.578 367.442 334.828 392.662 320.575 417.775C292.079 467.984 244.651 519.382 196.418 546.548C195.594 547.012 194.664 547.256 193.718 547.256C190.484 547.256 186.993 546.097 183.634 544.534C180.162 542.918 176.302 540.616 172.183 537.79C163.938 532.132 154.248 524.095 143.935 514.414C123.297 495.04 99.7801 468.721 79.8269 440.765C59.9378 412.898 43.2693 382.961 36.8025 356.39C33.5616 343.073 32.7899 330.234 35.778 318.79C38.8073 307.189 45.626 297.342 56.8874 290.159C72.7007 280.073 89.9607 280.859 106.196 286.997C122.296 293.083 137.891 304.579 151.365 316.859C164.897 329.193 176.607 342.614 184.912 352.913C188.594 357.479 191.619 361.449 193.852 364.461C196.274 361.371 199.584 357.245 203.604 352.484C212.442 342.019 224.766 328.402 238.623 315.945C252.406 303.555 268.058 291.988 283.562 286.01ZM322.408 299.066C312.837 291.297 301.055 291.054 287.519 296.273C273.87 301.536 259.4 312.059 245.976 324.126C232.626 336.127 220.66 349.336 212.009 359.581C207.69 364.695 204.214 369.051 201.823 372.122C200.628 373.657 199.703 374.87 199.082 375.694C198.771 376.106 198.536 376.421 198.381 376.631C198.303 376.735 198.245 376.814 198.208 376.865C198.189 376.89 198.175 376.909 198.167 376.921C198.163 376.927 198.159 376.931 198.157 376.934L198.156 376.935C197.102 378.375 195.414 379.214 193.63 379.185C191.845 379.156 190.185 378.263 189.177 376.79V376.789L189.17 376.777C189.162 376.766 189.149 376.749 189.133 376.725C189.099 376.676 189.046 376.599 188.975 376.497C188.834 376.294 188.62 375.987 188.336 375.585C187.767 374.781 186.919 373.596 185.817 372.096C183.611 369.093 180.389 364.83 176.348 359.818C168.252 349.777 156.931 336.817 143.955 324.989C130.92 313.109 116.527 302.662 102.306 297.286C88.221 291.961 74.8267 291.764 62.8025 299.434C53.898 305.113 48.7556 312.631 46.4216 321.569C44.0467 330.665 44.5093 341.541 47.49 353.788C53.4666 378.345 69.1938 406.933 88.78 434.375C108.302 461.727 131.34 487.502 151.465 506.393C161.533 515.846 170.777 523.484 178.407 528.72C182.226 531.34 185.539 533.288 188.275 534.561C190.152 535.435 191.553 535.891 192.531 536.102C238.187 509.876 283.597 460.644 311.009 412.346C324.86 387.939 333.883 364.173 336.208 344.087C338.531 324.008 334.115 308.571 322.408 299.066Z" fill="#FF914D"/>
</svg>
